<?xml version="1.0" encoding="iso-8859-1"?>
<!-- Generator: Adobe Illustrator 28.4.1, SVG Export Plug-In . SVG Version: 6.00 Build 0)  -->
<svg version="1.1" id="Layer_1" xmlns="http://www.w3.org/2000/svg" xmlns:xlink="http://www.w3.org/1999/xlink" x="0px" y="0px"
	 viewBox="0 0 612 792" style="enable-background:new 0 0 612 792;" xml:space="preserve">
<g>
	<g>
		<path style="fill:#525244;" d="M135.671,143.691c11.105-31.508,32.011-60.75,58.135-81.531
			c29.289-23.299,60.884-34.353,97.028-41.889c31.682-6.606,64.629-1.936,95.816,4.819c35.479,7.685,60.817,28.683,86.459,52.808
			c4.246,11.274,9.339,22.332,11.104,34.32c1.987,13.499-0.221,27.249-1.224,40.764c-17.809,10.567-32.034,19.064-40.684,38.954
			c-8.78,20.189-7.23,42.617-8.214,64.112c-0.003,0.302-0.005,0.605-0.007,0.908c0.05,0.608,0.1,1.217,0.148,1.827
			c-2.676,20.778-9.41,39.942-22.472,56.794c-0.673-0.639-1.253-1.19-1.834-1.742c13.037-35.107,17.571-71.016,5.362-107.34
			c-10.935-32.534-34.423-51.302-67.98-58.598c-35.336-7.683-72.229-8.555-108.11-12.45c-33.381-3.623-73.529-12.811-102.847,8.929
			C136.132,144.141,135.905,143.913,135.671,143.691z"/>
		<path style="fill:#AE9E7B;" d="M455.047,368.001c-2.667,13.137-3.168,28.053-7.867,40.508
			c-4.13,10.946-12.103,23.104-19.383,32.175c-7.593,9.462-19.925,14.033-31.309,17.025c-5.454,1.433-13.393,3.588-18.899,1.546
			c-5.269-1.954-8.511-6.98-14.198-8.951c-9.563-3.315-22.016,1.024-30.598-3.126c-9.636-4.659-16.388-16.089-26.455-21.402
			c-26.692-14.085-51.037-15.372-79.931-8.486c3.903-14.474,6.916-29.487,13.56-43.427
			C308.27,413.223,389.166,411.732,455.047,368.001z"/>
		<path style="fill:#AE9E7B;" d="M106.134,724.739c-33.711-8.14-56.036-31.174-75.164-59.15c0.005-1.199,0.01-2.398,0.015-3.598
			c0,0,0.265-0.21,0.265-0.21s-0.242,0.233-0.242,0.233c-0.712-0.326-1.425-0.651-2.137-0.977c0,0,0.061,0.064,0.061,0.064
			c-0.353-0.695-0.706-1.39-1.059-2.085c0,0,0.081,0.082,0.081,0.083c-0.392-0.531-0.784-1.061-1.176-1.592
			c0,0,0.199,0.07,0.199,0.07c-0.358-0.528-0.717-1.056-1.075-1.584c0,0,0.079,0.09,0.079,0.09
			c-0.353-0.692-0.706-1.384-1.059-2.076c0,0,0.072,0.079,0.072,0.079c-1.697-5.029-3.395-10.058-5.092-15.087
			c0,0,0.045,0.081,0.045,0.081c-0.921-2.671-1.841-5.342-2.762-8.012c-0.405-4.706-1.108-9.409-1.148-14.118
			c-0.066-7.835,1.909-14.757,10.146-18.031c6.905,0.364,13.81,0.727,20.715,1.091c11.574,6.316,23.147,11.209,32.767,20.496
			c10.194,9.841,18.756,21.187,27.352,32.387c0.36,0.367,0.719,0.735,1.079,1.102c0,0-0.073-0.091-0.073-0.091
			c0.353,0.699,0.706,1.398,1.059,2.096c0,0-0.069-0.084-0.069-0.084c0.356,0.359,0.712,0.717,1.068,1.076
			c0,0-0.077-0.079-0.077-0.079c0.36,0.7,0.719,1.4,1.079,2.099c0,0-0.041-0.104-0.041-0.104c0.689,1.358,1.378,2.715,2.067,4.073
			c0,0-0.081-0.085-0.081-0.085c0.355,0.36,0.709,0.72,1.063,1.081c0,0-0.052-0.056-0.052-0.056c0.35,0.688,0.7,1.377,1.051,2.065
			c0,0-0.044-0.061-0.044-0.061c-0.275,5.17,3.229,8.447,6.045,12.069c0,0-0.054-0.077-0.054-0.077
			c0.686,1.699,1.371,3.398,2.057,5.098c0,0-0.138-0.08-0.137-0.081c0.258,0.307,0.514,0.615,0.771,0.924
			c0.983,3.77,1.965,7.54,2.948,11.311c-0.075,0.351,0.027,0.629,0.307,0.834c0,0,0.011,0.009,0.011,0.01
			c0.348,7.355,0.696,14.71,1.044,22.065c0,0,0.057-0.067,0.057-0.067c-0.674,1.033-1.348,2.067-2.022,3.1
			c0,0,0.043-0.07,0.043-0.069c-0.356,0.363-0.712,0.725-1.069,1.088c0,0,0.084-0.085,0.084-0.085
			c-0.361,0.358-0.723,0.716-1.084,1.074c0,0,0.073-0.055,0.073-0.055c-0.363,0.342-0.726,0.684-1.089,1.026l0.04-0.046
			c-4.003,0.259-8.238,1.403-11.919,0.436C109.052,723.928,107.787,724.124,106.134,724.739z"/>
		<path style="fill:#E3D6B7;" d="M314.345,444.938c19.28,16.665,31.451,36.719,28.584,63.203
			c-0.665,6.141-3.845,12.009-5.868,18.002c0.469-2.866-1.371-3.116-3.536-3.345c-9.518-1.006-18.544-3.234-25.243-10.839
			c0.371-0.883,0.742-1.766,1.246-2.966c-7.107,1.234-13.86,2.408-20.687,3.593c-0.771,4.127-0.771,4.127,4.559,4.925
			c-2.234,22.432-25.946,11.562-27.295-5.25c-1.62-20.189,16.882-30.622,30.843-40.671c-12.523-3.212-22.825,3.586-30.467,13.016
			c-4.41,5.441-9.183,29.131-16.542,25.704c-0.412-0.411-0.824-0.823-1.236-1.234c0,0,0.205,0.216,0.203,0.215
			c-0.342-0.424-0.684-0.847-1.025-1.27c0,0,0.064,0.103,0.064,0.103c-1.363-2.687-2.727-5.374-4.09-8.061
			c0,0,0.076,0.079,0.076,0.078c-0.578-2.039-1.157-4.077-1.735-6.116c-0.042-1.345-0.083-2.69-0.125-4.035
			c0.12-0.094,0.355-0.221,0.34-0.277c-0.068-0.245-0.21-0.469-0.325-0.701c0.022-0.677,0.044-1.353,0.066-2.03
			c0.592-2.827,1.184-5.654,1.776-8.481l-0.139-0.275c0,0,0.221-0.215,0.221-0.215c1.004-0.141,2.008-0.283,2.617-0.369
			c-0.276-1.576-0.491-2.807-0.707-4.039c5.795-14.723,17.461-22.709,32.037-27.505c-24.591-14.958-38.324,27.026-64.027,19.244
			c-1.122-0.63-2.244-1.261-3.366-1.891c0,0,0.198-0.014,0.197-0.016c-0.395-0.383-0.789-0.764-1.183-1.145
			c0,0-0.147,0.21-0.146,0.207c-0.624-0.724-1.25-1.445-1.876-2.167c0,0,0.138,0.023,0.139,0.021
			c-0.41-0.709-0.821-1.417-1.231-2.124c0,0,0.244,0.061,0.245,0.06c0.076-4.142,0.151-8.283,0.226-12.424
			c0,0-0.094,0.105-0.094,0.105c0.294-0.446,0.589-0.892,0.883-1.338c0,0-0.137,0.15-0.135,0.149
			c0.371-0.398,0.741-0.796,1.11-1.193c0,0-0.271-0.111-0.268-0.109c0.63-0.677,1.256-1.356,1.883-2.035
			c0,0,0.196,0.054,0.196,0.056c0.486-0.522,0.971-1.046,1.457-1.57c0,0-0.05,0.045-0.05,0.044c0.59-0.494,1.18-0.988,1.77-1.482
			c0,0-0.084,0.291-0.083,0.29c0.418-0.386,0.835-0.771,1.252-1.156c0,0-0.189,0.255-0.188,0.253
			c0.429-0.359,0.858-0.716,1.286-1.073c0,0-0.149,0.165-0.148,0.164c0.396-0.33,0.792-0.659,1.188-0.988
			c0,0-0.027,0.015-0.027,0.015c1.282-0.811,2.563-1.623,3.845-2.434c0,0-0.178,0.136-0.176,0.137
			c1.091-0.631,2.179-1.263,3.268-1.895c0,0-0.1,0.116-0.1,0.116c0.704-0.415,1.408-0.83,2.112-1.244c0,0-0.191,0.147-0.19,0.148
			c6.75-1.36,12.805-4.635,19.632-5.897c8.647-1.599,17.202-0.784,25.896-0.116c0,0-0.198-0.201-0.196-0.199
			c4.049,1.571,8.062,3.236,12.152,4.684c5.021,1.779,10.105,3.377,15.162,5.053c0,0,0.075-0.026,0.075-0.023
			c0.894,0.54,1.789,1.077,2.684,1.614c0,0-0.114-0.077-0.113-0.077c0.446,0.311,0.892,0.621,1.338,0.932
			c0,0-0.162-0.267-0.16-0.265c0.684,0.445,1.366,0.888,2.048,1.331c0,0-0.104-0.129-0.104-0.128
			c1.062,0.674,2.125,1.348,3.187,2.022c0,0-0.214-0.118-0.213-0.116c0.432,0.38,0.862,0.759,1.292,1.138l-0.262-0.007
			c0,0,0.069-0.253,0.07-0.251c0.678,0.448,1.354,0.894,2.03,1.34c0,0-0.171-0.13-0.171-0.129c0.996,0.752,1.991,1.502,2.986,2.253
			c0,0-0.058-0.037-0.058-0.037C313.452,444.274,313.899,444.606,314.345,444.938z"/>
		<path style="fill:#525244;" d="M455.047,368.001c-65.881,43.731-146.777,45.222-215.08,5.861
			c2.402-5.484,4.805-10.967,7.038-16.065c7.121,0.811,14.247,1.579,21.361,2.445c8.556,1.04,7.773,1.154,12.275,7.021
			c7.685,10.015,16.509,15.334,28.674,18.81c29.823,8.523,63.205,3.268,90.597-10.776c11.767-6.033,22.656-13.985,32.232-23.084
			c9.605-9.126,16.976-20.13,27.412-28.401c5.602-4.439,11.28-8.313,16.409-13.376c5.599-5.527,7.088-9.329,14.702-6.811
			c12.164,4.022,24.86,15.428,32.384,25.321l-0.07,0.083c-31.432-7.901-54.984,9.106-67.111,38.047
			c-0.29,0.327-0.58,0.654-0.87,0.981L455.047,368.001z"/>
		<path style="fill:#E3D6B7;" d="M212.868,626.874c43.016-54.604,117.838,10.022,129.796,58.625
			c-6.906,12.68-4.837,27.727-22.717,31.334c0,2.009,0,3.661,0,5.313c-8.982-24.559-24.507-47.526-42.48-66.424
			c-15.395-16.188-40.458-34.619-64.019-28.228C213.266,627.277,213.073,627.07,212.868,626.874z"/>
		<path style="fill:#3A4133;" d="M489.787,695.745c13.189-8.969,22.172-21.303,26.755-36.338c2.164-7.101,1.82-14.967,2.611-22.486
			c13.469-11.822,22.723-24.583,32.96-39.265c10.162-14.575,13.569-29.336,16.837-46.563c8.805-6.45,17.61-12.9,26.995-19.776
			c0,65.518-34.403,150.338-105.813,164.851C490.016,696.028,489.901,695.887,489.787,695.745z"/>
		<path style="fill:#525244;" d="M344.997,658.011c-8.249-11.297-15.809-22.932-25.751-32.872
			c-8.202-8.201-18.865-12.644-27.164-20.123c13.462-19.494,30.156-39.263,55.388-28.083c9.428,4.178,17.553,10.548,23.395,19.088
			c3.925,5.737,13.98,21.789,10.132,27.98c-2.667,1.335-5.335,2.67-8.002,4.005c-0.127-0.07-0.255-0.141-0.382-0.211
			c0.13,0.067,0.261,0.134,0.391,0.202c-1.059,1.175-1.965,2.551-3.201,3.494C360.037,638.939,351.251,647.285,344.997,658.011z"/>
		<path style="fill:#E3D6B7;" d="M57.977,576.198c0.683,0.002,1.365,0.004,2.048,0.006c4.058,0.852,8.117,1.703,12.175,2.555
			c0,0,0.052-0.325,0.053-0.322c1.91,0.558,3.82,1.113,5.73,1.668c40.139,17.194,67.742,47.246,78.574,89.851
			c0.07,0.362,0.139,0.724,0.209,1.086c-0.33,8.614-0.66,17.228-0.989,25.841c-1.293-2.508-1.619-10.345-1.674-13.475
			c-0.111-6.296,1.207-10.537-0.025-17.27c-2.178,4.077-3.067,9.029-6.084,12.642c-2.508,3.004-6.416,4.204-8.318,7.798
			c-3.404,6.435-0.072,17.1-0.312,24.307c-0.033-28.992-18.595-59.65-36.879-81.175c-9.093-10.705-19.77-20.699-31.396-28.6
			c-6.159-4.186-12.825-7.984-19.759-10.753c-6.979-2.787-13.443-2.228-20.53-3.707c-0.119-0.506-0.238-1.013-0.357-1.519
			c3.64-1.745,7.28-3.491,10.922-5.236c1.551-0.637,3.102-1.274,4.652-1.911l0.187-0.189c0,0,0.225,0.143,0.226,0.142
			C50.28,577.359,54.128,576.779,57.977,576.198z"/>
		<path style="fill:#525244;" d="M545.857,485.874c7.697-4.581,15.393-9.161,23.09-13.743c0.97,11.296,2.472,22.57,2.97,33.903
			c0.444,10.097-2.016,21.382,0.355,31.069c-27.963,16.301-59.46,32.989-93.138,30.587c-0.556-6.273,1.824-10.695,7.596-13.677
			c4.32-2.232,8.201-5.315,12.278-8.019c0,0-0.015,0.015-0.015,0.015c1.663-0.999,3.327-1.997,4.99-2.996l0.033-0.034
			c11.161-7.279,20.7-18.089,28.8-28.579C537.221,508.695,551.158,493.585,545.857,485.874z"/>
		<path style="fill:#525244;" d="M391.956,522.013c3.795-18.805-0.082-32.399-4.51-50.991c17.248-4.05,35.22-13.056,52.335-4.137
			c14.543,7.579,24.681,24.854,25.121,41.062c-9.301,2.804-36.825,20.094-45.189,10.135c-3.125,6.015-5.15-0.793-8.598-0.753
			c0.915,1.368,1.526,2.28,2.27,3.393C406.186,520.721,398.94,520.108,391.956,522.013z"/>
		<path style="fill:#525244;" d="M391.934,618.264c-10.713-26.218-23.811-45.244-52.58-53.377c-0.119-0.461-0.239-0.922-0.358-1.384
			c20.742-7.303,51.833-21.079,70.872-4.59c13.311,11.528,27.635,38.3,18.102,56.057
			C418.602,610.906,398.923,609.136,391.934,618.264z"/>
		<path style="fill:#AE9E7B;" d="M443.998,240.959c0.009-0.648,0.018-1.296,0.027-1.944c1.653-10.359,3.306-20.717,4.96-31.075
			c0,0-0.053,0.082-0.053,0.08c0.128-0.294,0.257-0.588,0.385-0.881c3.441-19.463,13.535-30.68,30.392-40.169
			c8.119-1.286,16.237-1.998,24.352,0.027c3.937,1.704,7.874,3.409,11.811,5.113c0.418,3.203,0.836,6.406,1.255,9.61
			c-35.26-17.447-51.442,71.204-28.098,90.123c-7.327,3.333-8.919-6.37-15.194-8.311c-3.635-1.124-9.271,0.999-13.257,0.512
			c-5.377-0.657-10.274-2.584-14.318-6.27c-0.042-0.611-0.084-1.221-0.125-1.832c-0.071-0.823-0.142-1.646-0.213-2.469
			c0,0,0.033,0.096,0.033,0.096c-0.068-3.779-0.078-7.562-0.28-11.334C445.649,241.78,444.582,241.382,443.998,240.959z
			 M477.958,178.233c-7.779,2.233-11.954,2.507-15.221,11.099c-1.638,4.308-2.873,8.549,1.908,11.128
			C478.725,208.057,477.958,184.727,477.958,178.233z"/>
		<path style="fill:#525244;" d="M474.11,501.894c-4.703-11.048-8.053-22.442-16.103-31.675c-7.704-8.838-16.822-12.221-27.36-16.48
			c12.466-15.269,18.657-27.171,40.428-23.514c17.227,2.894,31.971,15.567,41.056,29.762
			C500.872,475.107,488.614,489.867,474.11,501.894z"/>
		<path style="fill:#525244;" d="M516.867,448.418c-8.773-8.91-15.888-18.089-27.915-22.563
			c-11.571-4.304-23.194-4.907-35.328-6.093c8.059-17.528,11.987-36.189,33.992-38.5c19.469-2.044,32.743,11.295,44.348,24.736
			c-3.469,5.13-3.627,11.143-5.755,17.036C523.146,431.515,519.983,439.958,516.867,448.418z"/>
		<path style="fill:#525244;" d="M568.949,551.094c-3.268,17.227-6.675,31.988-16.837,46.563
			c-10.237,14.682-19.491,27.443-32.96,39.265c-1.634-24.714-14.635-43.437-31.889-60.459c13.994-1.11,28.273-1.667,41.88-6.112
			C543.019,565.816,556.058,557.782,568.949,551.094z"/>
		<path style="fill:#3A4133;" d="M327.351,554.975c-13.591,11.99-27.49,23.388-39.397,37.042
			c-14.792,16.963-13.429-7.08-17.121-17.927c-4.193-12.319-12.186-22.814-21.25-31.972c-10.375-10.482-20.059-13.038-18.144-29.262
			c5.01,2.933,10.457,7.335,15.83,9.448c3.552,1.397,7.035,1.161,10.216,3.324c7.982,5.426,9.904,13.945,20.779,15.862
			c4.443,0.783,8.972-1.296,13.199-0.535c5.067,0.912,6.891,4.671,11.005,7.152C308.683,551.857,323.907,549.327,327.351,554.975z"
			/>
		<path style="fill:#525244;" d="M437.835,618.015c4.249-26.556-5.273-43.596-19.509-64.984
			c16.585,5.612,41.021,9.972,51.028,26.066c11.683,18.79,11.699,45.202,2.504,64.734
			C468.265,633.108,447.251,622.561,437.835,618.015z"/>
		<path style="fill:#525244;" d="M151.704,626.327c-12.46-17.273-24.213-31.497-42.689-42.81
			c11.447-14.987,18.399-24.916,38.355-16.232c14.062,6.119,24.853,17,31.712,30.663c-3.775,3.439-7.768,6.67-11.273,10.365
			C162.268,614.155,157.055,620.307,151.704,626.327z"/>
		<path style="fill:#525244;" d="M531.992,390.426c-11.259-9.457-21.926-16.59-37.004-17.705c-6.151-0.455-12.364-0.12-18.238,1.946
			c-4.639,1.631-9.553,7.434-14.295,7.3c8.402-25.465,30.052-59.533,61.581-40.015c1.98,7.263,8.16,12.115,9.396,20.567
			C534.796,371.842,532.958,381.168,531.992,390.426z"/>
		<path style="fill:#3A4133;" d="M409.926,313.836c0.581,0.552,1.161,1.103,1.834,1.742c13.062-16.852,19.796-36.017,22.472-56.794
			c9.225,17.902,14.804,34.402,36.532,39.965c-21.398,23.234-59.002,44.096-90.639,47.395l-0.231-0.234
			c6.041-5.266,12.167-10.438,18.079-15.845c2.228-2.038,3.959-4.618,5.918-6.952c0.685-1.037,1.368-2.074,2.052-3.11l0.04-0.062
			c5.223,0.6,3.146-3.647,3.964-5.971L409.926,313.836z"/>
		<path style="fill:#3A4133;" d="M437.835,618.015c9.416,4.546,30.43,15.093,34.023,25.816
			c-6.283,11.872-15.291,22.398-28.479,26.579c-15.594,4.944-28.941-2.201-42.549-9.128
			C419.714,650.891,431.14,638.92,437.835,618.015z"/>
		<path style="fill:#3A4133;" d="M509.883,645.94c0,17.97-14.814,37.704-30.82,45.206c-19.606,9.19-39.318,0.269-56.394-9.884
			c27.454,0,42.214-9.377,57.139-32.276c0.386-0.338,0.77-0.675,1.154-1.013c0,0-0.006-0.026-0.006-0.026
			c5.313,0.3,10.653,1.068,15.93,0.755C501.258,648.443,505.554,646.909,509.883,645.94z"/>
		<path style="fill:#3A4133;" d="M148.892,386.01c13.414,5.134,20.022,16.914,24.537,29.809
			c6.022,17.199,11.331,34.68,17.145,51.954c5.512,16.376,11.004,32.76,16.582,49.114c3.51,10.292,17.25,34.216,5.209,42.808
			c-11.046-25.737-19.21-52.701-28.233-79.212c-9.245-27.159-16.603-54.829-32.186-79.018c1.247-1.547,2.496-3.091,4.175-5.168
			c-1.441-0.197-3.25-0.444-6.807-0.931c1.936-1.061,2.84-1.557,4.056-2.223c-1.288-0.44-2.332-0.796-3.376-1.152
			c0,0,0.014,0.014,0.014,0.014C145.612,388.548,145.612,388.548,148.892,386.01z"/>
		<path style="fill:#3A4133;" d="M391.956,522.013c6.983-1.905,14.23-1.292,21.428-1.292c-0.744-1.113-1.355-2.025-2.27-3.393
			c3.448-0.04,5.474,6.768,8.598,0.753c8.363,9.959,35.888-7.331,45.189-10.135c-2.132,15.702-1.489,34.011-20.682,37.403
			c-18.387,3.25-40.65-5.174-59.146-6.64C387.471,532.894,389.714,527.453,391.956,522.013z"/>
		<path style="fill:#3A4133;" d="M428.131,343.118c-21.798,16.138-41.86,31.352-69.293,36.215
			c-12.187,2.161-24.923,2.86-37.132,0.497c-12.295-2.38-20.965-9.253-31.932-14.362c0.542-0.805,1.084-1.609,1.625-2.414
			c22.982,0,45.068,1.392,67.987-1.76c23.736-3.265,45.943-10.611,68.486-18.433L428.131,343.118z"/>
		<path style="fill:#E3D6B7;" d="M79.066,488.692c-13.66-1.215-29.327-5.335-35.271-19.234
			c-6.378-14.914,4.464-26.149,14.406-35.725c0.994,3.05,2.85,5.784,3.111,9.039c0.158,1.971-1.704,4.653-1.147,6.317
			c1.881,5.619,7.728,6.419,12.963,8.463c10.467,4.088,30.42,8.247,26.698,23.501c-0.245,0.41-0.49,0.819-0.735,1.229
			c0,0,0.24-0.206,0.239-0.205c-0.439,0.677-0.877,1.354-1.315,2.03c-0.252,0.315-0.504,0.631-0.757,0.946
			c-0.415,0.351-0.83,0.702-1.245,1.054c0,0,0.091-0.06,0.09-0.06C95.505,486.422,92.909,489.933,79.066,488.692z"/>
		<path style="fill:#3A4133;" d="M565.587,389.347c7.458,15.675,26.734,42.112,14.353,58.431
			c-8.17,10.769-27.139,30.704-42.268,29.02c11.815-29.033,23.778-55.318,26.638-86.84
			C564.736,389.754,565.161,389.55,565.587,389.347z"/>
		<path style="fill:#3A4133;" d="M503.984,543.013c-1.663,0.999-3.327,1.997-4.99,2.996c-0.128-0.079-0.255-0.158-0.383-0.237
			c0.133,0.074,0.265,0.148,0.398,0.223c-4.077,2.704-7.957,5.787-12.278,8.019c-5.772,2.982-8.153,7.405-7.596,13.677
			c-6.992,0.369-16.213-9.155-21.526-13.05c16.841-8.756,32.812-17.043,46.337-30.688c6.198-6.253,12.033-13.156,17.055-20.395
			c5.008-7.218,8.006-14.911,18.069-15.485c0.679-0.051,1.359-0.102,2.039-0.153c0.184-0.062,0.365-0.053,0.546,0.026
			c0.557,0.001,1.111,0.002,1.664,0.004c0,0,0.473-0.045,0.476-0.044c0.17,0.128,0.338,0.255,0.505,0.383
			c-0.132-0.169-0.263-0.337-0.395-0.506c0.652-0.635,1.303-1.271,1.954-1.907c5.3,7.71-8.637,22.82-13.042,28.526
			c-8.1,10.49-17.638,21.3-28.8,28.579c-0.141-0.072-0.281-0.145-0.422-0.218C503.724,542.845,503.854,542.929,503.984,543.013z"/>
		<path style="fill:#3A4133;" d="M572.273,537.103c-2.371-9.687,0.088-20.972-0.355-31.069c-0.498-11.333-2-22.606-2.97-33.903
			c6.853-6.673,13.706-13.347,21.03-20.479c2.795,17.112,5.098,34.011,6.269,51.33c0.477,7.065,1.143,11.468-3.457,16.95
			C587.364,526.397,578.731,531.748,572.273,537.103z"/>
		<path style="fill:#3A4133;" d="M262.498,593.941c-11.387,1.331-22.628,2.644-34.123,3.987
			c-1.153-10.628-10.042-22.476-7.381-31.687c1.484-5.136,4.933-8.696,5.497-14.499c0.488-5.02-2.032-10.521-1.164-15.218
			C241.481,542.204,265.935,576.318,262.498,593.941z"/>
		<path style="fill:#3A4133;" d="M474.11,501.894c14.503-12.027,26.762-26.786,38.022-41.907
			c18.099,27.899-14.481,61.103-37.855,73.065c-0.526-1.185-1.535-2.393-1.481-3.551c0.153-3.277,0.742-6.533,1.159-9.798
			c-0.051-0.218-0.049-0.436,0.008-0.654c0.045-1.318,0.09-2.636,0.134-3.953C474.101,510.696,474.106,506.295,474.11,501.894z"/>
		<path style="fill:#3A4133;" d="M151.704,626.327c5.351-6.02,10.564-12.172,16.104-18.013c3.505-3.695,7.498-6.926,11.273-10.365
			c0.001,0-0.069-0.004-0.068-0.003c0.292,0.323,0.585,0.646,0.877,0.97c0.056,0.329,0.093,0.66,0.112,0.993
			c0.318,0.35,0.635,0.7,0.953,1.05c5.183,11.328,8.994,24.4,6.364,36.907c-2.36,11.224-11.719,19.904-18.809,28.499
			C163.129,652.928,158.154,639.289,151.704,626.327z"/>
		<path style="fill:#3A4133;" d="M344.997,658.011c6.254-10.727,15.04-19.072,24.807-26.522c1.236-0.943,2.142-2.318,3.201-3.494
			l-0.01,0.01c2.667-1.335,5.335-2.67,8.002-4.005c8.43,4.75,2.163,27.352-0.638,34.172c-4.922,11.984-13.718,21.994-21.781,31.942
			C353.93,679.126,349.464,668.569,344.997,658.011z"/>
		<path style="fill:#E3D6B7;" d="M92.964,498.242c7.899-0.433,21.33-1.903,18.939,10.706c-1.801,9.501-16.456,13.356-24.475,13.977
			c-21.918,1.697-36.592-12.456-41.379-32.473c9.542,2.873,17.766,5.349,25.991,7.824C80.111,498.025,86.813,498.252,92.964,498.242
			z"/>
		<path style="fill:#3A4133;" d="M197.092,623.051c-0.06-1.313-0.121-2.626-0.18-3.941c0.361-0.373,0.721-0.744,1.081-1.116
			c0.072-0.124,0.143-0.247,0.215-0.371c-0.068,0.128-0.135,0.255-0.203,0.383c-0.377-0.049-0.754-0.097-1.131-0.146
			c-0.051-0.185-0.026-0.358,0.074-0.525c-0.696-2.115-1.393-4.227-2.089-6.338c-3.127-6.907-5.564-14.248-9.565-20.605
			c-4.359-6.926-10.168-12.939-15.345-19.349l0.119-0.122c8.397,1.444,16.917,3.574,25.414,4.296
			c6.616,0.562,13.125-2.218,17.66,3.199c2.938,3.509,5.856,17.624,5.682,22.133c-0.272,7.069-6.109,9.659-11.703,14.466
			c-0.707,0.997-1.412,1.995-2.118,2.992c0,0,0.003-0.005,0.003-0.005c-0.333,0.379-0.665,0.758-0.998,1.137
			c-0.265,0.29-0.529,0.579-0.796,0.869c-0.398,0.682-0.794,1.365-1.19,2.047c0,0,0.034-0.048,0.033-0.048
			c-0.345,0.347-0.69,0.693-1.035,1.039c0,0,0.038-0.02,0.038-0.02C199.736,623.034,198.414,623.042,197.092,623.051z"/>
		<path style="fill:#525244;" d="M446.258,257.774c4.044,3.686,8.941,5.613,14.318,6.27c3.986,0.487,9.622-1.637,13.257-0.512
			c6.275,1.941,7.867,11.645,15.194,8.312c8.241,4.392,19.449-2.964,25.329-9.039c9.465-9.779,11.354-27.135,15.177-39.682
			c1.107-0.089,2.214-0.178,3.322-0.267c-0.333,23.102-12.776,50.762-34.666,60.911
			C476.037,294.037,450.476,282.397,446.258,257.774z"/>
		<path style="fill:#525244;" d="M176.228,392.711c8.692-11.128,16.313-26.483,32.883-21.147
			c6.715,2.163,13.578,6.574,14.284,13.523c0.845,8.323-5.716,22.328-7.776,30.242C206.04,401.868,193.075,394.78,176.228,392.711z"
			/>
		<path style="fill:#525244;" d="M509.883,645.94c-4.329,0.969-8.625,2.503-12.997,2.762c-5.276,0.313-10.617-0.455-15.93-0.755
			c2.93-10.344,6.233-20.291,6.536-31.164c0.24-8.618-4.704-20.096-3.4-28.157C495.961,596.402,513.102,622.246,509.883,645.94z"/>
		<path style="fill:#3A4133;" d="M391.934,618.264c6.99-9.127,26.668-7.357,36.036-3.293c-2.284,18.9-18.709,35.699-36.91,39.709
			C395.279,642.442,394.095,630.355,391.934,618.264z"/>
		<path style="fill:#3A4133;" d="M482.989,152.982c1.003-13.515,3.211-27.265,1.224-40.764c-1.765-11.988-6.859-23.046-11.104-34.32
			c20.155,22.03,31.778,47.925,35.414,76.279C499.852,153.771,491.421,153.377,482.989,152.982z"/>
		<path style="fill:#3A4133;" d="M372.847,690.292c3.264-4.438,8.057-14.922,13.025-17.402c6.303-3.147,13.11,2.8,18.206,6.37
			c13.927,9.757,25.662,18.417,42.033,23.739C435.182,706.873,387.604,698.793,372.847,690.292z"/>
		<path style="fill:#525244;" d="M148.892,386.01c-3.28,2.538-3.28,2.538,1.116,5.996c-0.345,0.325-0.689,0.649-1.033,0.974
			c-0.071,0.145-0.141,0.29-0.212,0.436c0.085-0.132,0.169-0.263,0.254-0.395c0.326-0.343,0.652-0.686,0.977-1.029
			c1.044,0.356,2.088,0.713,3.376,1.152c-1.215,0.666-2.12,1.162-4.056,2.223c3.557,0.486,5.366,0.733,6.807,0.931
			c-1.679,2.077-2.927,3.62-4.175,5.168c-11.805-9.854-27.974-10.846-42.32-14.388c-16.945-4.184-39.245-6.41-54.577-14.619
			c9.455-9.943,29.916-1.113,40.99,1.217C112.96,377.233,133.166,378.844,148.892,386.01z"/>
		<path style="fill:#3A4133;" d="M516.867,448.418c3.117-8.46,6.279-16.903,9.342-25.383c2.128-5.894,2.286-11.906,5.755-17.036
			c15.464,23.202,5.018,44.764-4.67,67.643C523.825,465.252,520.346,456.835,516.867,448.418z"/>
		<path style="fill:#3A4133;" d="M531.992,390.426c0.966-9.258,2.804-18.583,1.44-27.908c-1.236-8.452-7.416-13.304-9.396-20.567
			c28.018,11.303,29.298,47.111,23.759,71.896C542.592,406.135,537.292,398.28,531.992,390.426z"/>
		<path style="fill:#AE9E7B;" d="M308.282,511.958c6.698,7.605,15.724,9.834,25.243,10.839c2.166,0.229,4.006,0.479,3.536,3.345
			c0,0,0.029-0.115,0.029-0.115c-0.348,0.683-0.697,1.366-1.045,2.049c0,0,0.046-0.052,0.046-0.052
			c-0.345,0.366-0.69,0.731-1.034,1.097c0,0,0.076-0.085,0.076-0.084c-0.375,0.685-0.75,1.371-1.125,2.056
			c-6.627,9.188-18.555,14.619-27.765,5.373C297.06,527.25,300.84,519.74,308.282,511.958z"/>
		<path style="fill:#AE9E7B;" d="M352.999,525.006c6.732-0.185,13.464-0.479,20.196-0.482c1.844-0.001,3.688,0.873,5.532,1.346
			c-2.139,6.997-6.806,12.061-12.669,16.061c-2.862,1.952-6.07,3.394-9.122,5.067c-1.782,0.243-3.561,0.515-5.347,0.724
			c-5.087,0.594-10.158,1.049-14.527-2.518c3.066-4.262,6.311-8.41,9.123-12.833c1.415-2.225,2.045-4.95,3.03-7.449
			C350.475,524.95,351.737,524.978,352.999,525.006z"/>
		<path style="fill:#AE9E7B;" d="M139.364,710.887c0.24-7.207-3.093-17.872,0.312-24.307c1.901-3.594,5.81-4.793,8.318-7.798
			c3.017-3.614,3.906-8.565,6.084-12.642c1.231,6.732-0.086,10.974,0.025,17.27c0.055,3.13,0.381,10.967,1.674,13.475
			c-3.569,9.864-8.101,19.027-18.032,24.627C138.307,717.823,138.835,714.355,139.364,710.887z"/>
		<path style="fill:#525244;" d="M196.911,429.813c-2.743,0.584-5.486,1.168-8.358,1.779c-3.05-8.924-6.133-17.944-9.226-26.996
			c9.818-1.773,22.829,5.534,27.73,15.407C202.1,421.645,198.365,424.549,196.911,429.813z"/>
		<path style="fill:#3A4133;" d="M234.274,355.695c-1.886,5.261-3.782,10.552-5.877,16.398c-7.936-4.953-14.476-7.938-23.497-10.543
			C210.359,351.619,216.651,350.354,234.274,355.695z"/>
		<path style="fill:#AE9E7B;" d="M92.865,533.251c1.895-0.548,9.504-4.076,11.382-2.386c3.983,3.584-3.506,9.002-5.775,9.909
			c-11.197,4.476-21.248-0.37-29.544-7.206c0.716-0.544,1.431-1.089,2.146-1.633c0,0-0.084-0.028-0.084-0.029
			C78.133,534.781,85.472,534.463,92.865,533.251z"/>
		<path style="fill:#AE9E7B;" d="M532.855,222.857c-1.107,0.089-2.214,0.178-3.321,0.266c-0.221-7.451-0.151-14.924-0.75-22.344
			c-0.584-7.234-3.917-13.275-9.729-17.808c1.295-1.123,2.591-2.246,3.886-3.368c6.017,5.704,7.678,13.393,8.731,21.012
			C532.686,207.943,532.509,215.436,532.855,222.857z"/>
		<path style="fill:#3A4133;" d="M209.442,494.021c-2.189-6.453-4.335-12.777-6.969-20.542c5.185,2.172,11.492,2.851,12.758,5.74
			C218.19,485.97,215.803,489.992,209.442,494.021z"/>
		<path style="fill:#E3D6B7;" d="M232.684,477.361c0,7.631,0,13.812,0,21.004C223.872,490.508,225.823,484.363,232.684,477.361z"/>
		<path style="fill:#3A4133;" d="M196.911,429.813c1.454-5.263,5.189-8.168,10.146-9.809
			C209.929,428.448,206.932,430.077,196.911,429.813z"/>
		<path style="fill:#AE9E7B;" d="M220.538,500.534c0,6.679,0,12.317,0,18.299C209.97,516.096,217.575,505.391,220.538,500.534z"/>
		<path style="fill:#AE9E7B;" d="M206.003,646.013c-2.43,10.352-0.607,20.345,2.461,30.258c0.456,1.473,0.455,3.087,0.666,4.635
			c-4.298-9.421-6.396-19.248-5.115-29.605C204.24,649.484,205.319,647.773,206.003,646.013z"/>
		<path style="fill:#141C12;" d="M448.984,207.94c-1.653,10.358-3.306,20.717-4.96,31.075c1.1-9.389,2.159-18.783,3.356-28.16
			C447.511,209.832,448.431,208.909,448.984,207.94z"/>
		<path style="fill:#E3D6B7;" d="M337.06,545.203c4.369,3.567,9.44,3.112,14.527,2.518c1.786-0.209,3.565-0.481,5.347-0.724
			c-7.635,4.037-15.068,2.518-22.536-1.511C335.286,545.392,336.173,545.298,337.06,545.203z"/>
		<path style="fill:#AE9E7B;" d="M504.06,166.997c-8.115-2.025-16.233-1.313-24.352-0.027
			C487.829,163.192,495.947,162.64,504.06,166.997z"/>
		<path style="fill:#AE9E7B;" d="M522.942,179.603c-1.295,1.123-2.591,2.245-3.887,3.368c-0.643-0.417-1.287-0.834-1.93-1.25
			c-0.418-3.203-0.836-6.407-1.255-9.61C518.228,174.608,520.585,177.105,522.942,179.603z"/>
		<path style="fill:#AE9E7B;" d="M128.038,718.077c-0.348-7.355-0.696-14.71-1.044-22.065
			C129.968,703.243,131.165,710.558,128.038,718.077z"/>
		<path style="fill:#AE9E7B;" d="M46.897,600.011c-6.905-0.364-13.81-0.727-20.715-1.091
			C33.26,595.995,40.155,596.552,46.897,600.011z"/>
		<path style="fill:#AE9E7B;" d="M121.09,677.996c-2.817-3.621-6.32-6.899-6.045-12.069
			C117.06,669.95,119.075,673.973,121.09,677.996z"/>
		<path style="fill:#E3D6B7;" d="M92.865,533.251c-7.394,1.211-14.732,1.529-21.875-1.345
			C78.282,532.355,85.574,532.803,92.865,533.251z"/>
		<path style="fill:#525244;" d="M473.955,519.703c-0.417,3.265-1.006,6.521-1.159,9.798c-0.054,1.158,0.954,2.366,1.481,3.551
			c-1.422,0.985-2.847,1.97-4.272,2.954l-0.016-0.015C471.311,530.562,472.633,525.132,473.955,519.703z"/>
		<path style="fill:#AE9E7B;" d="M106.134,724.739c1.653-0.615,2.918-0.811,5.017-0.26c3.681,0.966,7.916-0.177,11.919-0.436
			C117.549,727.288,111.865,726.584,106.134,724.739z"/>
		<path style="fill:#525244;" d="M197.743,439.092c-1.11,2.804-2.017,5.096-2.956,7.466
			C191.187,442.221,191.69,440.805,197.743,439.092z"/>
		<path style="fill:#E3D6B7;" d="M19.901,639.001c1.697,5.029,3.394,10.058,5.092,15.087
			C23.296,649.059,21.598,644.03,19.901,639.001z"/>
		<path style="fill:#AE9E7B;" d="M443.998,240.959c0.584,0.424,1.651,0.822,1.675,1.276c0.202,3.772,0.212,7.555,0.28,11.334
			C445.301,249.365,444.649,245.162,443.998,240.959z"/>
		<path style="fill:#525244;" d="M197.092,623.051c1.322-0.009,2.644-0.018,3.966-0.026c-0.973,2.359-1.946,4.717-2.919,7.076
			c-0.349-0.049-0.698-0.097-1.047-0.146C197.092,627.654,197.092,625.352,197.092,623.051z"/>
		<path style="fill:#E3D6B7;" d="M283.92,756.028c4.332,0.89,8.664,1.78,12.997,2.67
			C292.585,757.808,288.252,756.918,283.92,756.028z"/>
		<path style="fill:#E3D6B7;" d="M307.118,718c-1.682-3.705-3.364-7.41-5.046-11.115C303.754,710.59,305.436,714.295,307.118,718z"
			/>
		<path style="fill:#525244;" d="M409.946,313.967c-0.818,2.325,1.259,6.571-3.964,5.971
			C407.303,317.948,408.624,315.958,409.946,313.967z"/>
		<path style="fill:#AE9E7B;" d="M17.184,631.069c0.921,2.671,1.841,5.342,2.762,8.012C19.025,636.411,18.104,633.74,17.184,631.069
			z"/>
		<path style="fill:#E3D6B7;" d="M271.417,751.018c2.526,1.028,5.052,2.055,7.578,3.083
			C276.47,753.073,273.944,752.046,271.417,751.018z"/>
		<path style="fill:#E3D6B7;" d="M71.074,531.935c-0.715,0.544-1.431,1.089-2.146,1.633c-1.042-0.981-2.084-1.962-3.126-2.942
			c0.171-0.299,0.342-0.598,0.513-0.897C67.901,530.464,69.488,531.199,71.074,531.935z"/>
		<path style="fill:#525244;" d="M194.859,610.997c0.696,2.112,1.393,4.223,2.089,6.338
			C196.252,615.225,195.555,613.111,194.859,610.997z"/>
		<path style="fill:#E3D6B7;" d="M300.107,702.977c-1.014-1.694-2.027-3.388-3.041-5.081
			C298.079,699.59,299.093,701.283,300.107,702.977z"/>
		<path style="fill:#E3D6B7;" d="M123.094,683.017c-0.686-1.699-1.371-3.398-2.057-5.098
			C121.722,679.618,122.408,681.317,123.094,683.017z"/>
		<path style="fill:#E3D6B7;" d="M113.108,662.983c-0.689-1.358-1.378-2.715-2.067-4.073
			C111.73,660.268,112.419,661.626,113.108,662.983z"/>
		<path style="fill:#AE9E7B;" d="M28.871,661.038c0.712,0.326,1.425,0.651,2.137,0.977c0,0-0.022-0.023-0.022-0.023
			c-0.005,1.199-0.01,2.398-0.015,3.598C30.271,664.072,29.571,662.555,28.871,661.038z"/>
		<path style="fill:#E3D6B7;" d="M126.072,721.111c0.674-1.033,1.348-2.067,2.022-3.1
			C127.42,719.044,126.746,720.077,126.072,721.111z"/>
		<path style="fill:#525244;" d="M405.941,320.001c-0.684,1.036-1.368,2.073-2.052,3.11
			C404.573,322.075,405.257,321.038,405.941,320.001z"/>
		<path style="fill:#525244;" d="M474.097,515.096c-0.045,1.318-0.089,2.635-0.134,3.953
			C474.007,517.732,474.052,516.414,474.097,515.096z"/>
		<path style="fill:#3A4133;" d="M490.131,696.169c-0.974,0.318-1.949,0.636-2.923,0.955c-0.08-0.254-0.16-0.508-0.241-0.763
			c0.941-0.203,1.882-0.407,2.821-0.613C489.901,695.887,490.016,696.028,490.131,696.169z"/>
		<path style="fill:#525244;" d="M205.003,618.006c0.706-0.997,1.411-1.995,2.118-2.992
			C206.415,616.011,205.709,617.008,205.003,618.006z"/>
		<path style="fill:#E3D6B7;" d="M278.918,754.067c1.022,0.351,2.045,0.702,3.068,1.052
			C280.964,754.768,279.941,754.418,278.918,754.067z"/>
		<path style="fill:#E3D6B7;" d="M292.2,691.947c0,0-0.19,0.082-0.19,0.082s-0.035-0.036-0.035-0.036
			c0.205-0.407,0.41-0.815,0.625-1.189C292.472,691.208,292.336,691.578,292.2,691.947z"/>
		<path style="fill:#E3D6B7;" d="M302.145,706.999c-0.374-1.028-0.749-2.055-1.123-3.082
			C301.396,704.944,301.771,705.971,302.145,706.999z"/>
		<path style="fill:#E3D6B7;" d="M115.088,665.988c-0.35-0.688-0.7-1.377-1.051-2.065
			C114.388,664.611,114.738,665.3,115.088,665.988z"/>
		<path style="fill:#525244;" d="M128.973,562.98c-0.361,0.271-0.722,0.542-0.092,0.069c-0.781,0.113-0.32,0.046,0.14-0.02
			L128.973,562.98z"/>
		<path style="fill:#E3D6B7;" d="M27.872,659.017c0.353,0.695,0.706,1.39,1.059,2.085C28.579,660.407,28.225,659.712,27.872,659.017
			z"/>
		<path style="fill:#E3D6B7;" d="M334.007,531.093c0.375-0.685,0.75-1.371,1.125-2.056
			C334.757,529.722,334.382,530.407,334.007,531.093z"/>
		<path style="fill:#E3D6B7;" d="M336.045,528.077c0.348-0.683,0.697-1.366,1.045-2.049
			C336.741,526.711,336.393,527.394,336.045,528.077z"/>
		<path style="fill:#E3D6B7;" d="M281.902,755.083c0.698,0.345,1.397,0.691,2.096,1.036
			C283.299,755.774,282.6,755.428,281.902,755.083z"/>
		<path style="fill:#525244;" d="M523.051,328.947c0.405,0.125,0.811,0.25,1.216,0.375c-0.275,0.624-0.704,0.527-1.287-0.292
			C522.981,329.03,523.051,328.947,523.051,328.947z"/>
		<path style="fill:#3A4133;" d="M428.915,341.925c0.322-0.252,0.644-0.504,0.966-0.757c0.13,0.173,0.261,0.346,0.391,0.518
			c-0.39,0.142-0.78,0.284-1.173,0.422C429.097,342.106,428.915,341.926,428.915,341.925z"/>
		<path style="fill:#E3D6B7;" d="M295.133,693.974c-0.321-0.431-0.642-0.862-0.964-1.293
			C294.491,693.112,294.812,693.543,295.133,693.974z"/>
		<path style="fill:#E3D6B7;" d="M111.082,659.014c-0.36-0.7-0.719-1.4-1.079-2.099
			C110.362,657.615,110.722,658.315,111.082,659.014z"/>
		<path style="fill:#E3D6B7;" d="M296.095,695.992c-0.354-0.695-0.708-1.389-1.062-2.084
			C295.386,694.603,295.741,695.297,296.095,695.992z"/>
		<path style="fill:#E3D6B7;" d="M109.081,656.001c-0.353-0.699-0.706-1.397-1.059-2.096
			C108.375,654.604,108.728,655.302,109.081,656.001z"/>
		<path style="fill:#E3D6B7;" d="M297.12,697.993c-0.358-0.692-0.715-1.384-1.073-2.077
			C296.404,696.609,296.762,697.301,297.12,697.993z"/>
		<path style="fill:#525244;" d="M541.108,487.92c-0.68,0.051-1.36,0.102-2.039,0.153
			C539.749,488.022,540.429,487.971,541.108,487.92z"/>
		<path style="fill:#E3D6B7;" d="M24.921,654.008c0.353,0.692,0.706,1.384,1.059,2.076C25.627,655.392,25.274,654.7,24.921,654.008z
			"/>
		<path style="fill:#E3D6B7;" d="M206.313,645.108c0.238,0.132,0.476,0.264,0.714,0.396c-0.338,0.167-0.676,0.333-1.014,0.5
			C206.11,645.704,206.21,645.405,206.313,645.108z"/>
		<path style="fill:#525244;" d="M202.022,622.053c0.396-0.682,0.792-1.364,1.19-2.047
			C202.816,620.689,202.419,621.371,202.022,622.053z"/>
		<path style="fill:#E3D6B7;" d="M445.92,253.473c0.071,0.823,0.142,1.646,0.213,2.469
			C446.062,255.119,445.991,254.296,445.92,253.473z"/>
		<path style="fill:#E3D6B7;" d="M213.448,627.495c-0.391,0.082-0.782,0.164-1.173,0.247c0.198-0.289,0.396-0.578,0.593-0.867
			C213.073,627.07,213.266,627.277,213.448,627.495z"/>
		<path style="fill:#3A4133;" d="M434.083,256.957c0.002-0.303,0.004-0.606,0.007-0.908
			C434.091,256.352,434.088,256.654,434.083,256.957z"/>
		<path style="fill:#525244;" d="M201.02,623.045c0.345-0.346,0.69-0.693,1.035-1.039
			C201.71,622.352,201.365,622.698,201.02,623.045z"/>
		<path style="fill:#525244;" d="M204.007,619.138c0.333-0.379,0.665-0.758,0.998-1.137
			C204.673,618.38,204.34,618.759,204.007,619.138z"/>
		<path style="fill:#525244;" d="M196.874,617.861c0.377,0.049,0.754,0.097,1.131,0.146c0,0-0.012-0.013-0.012-0.013
			c-0.36,0.371-0.72,0.743-1.081,1.116C196.899,618.695,196.887,618.278,196.874,617.861z"/>
		<path style="fill:#E3D6B7;" d="M449.316,207.139c-0.129,0.293-0.257,0.587-0.385,0.881
			C449.061,207.728,449.19,207.434,449.316,207.139z"/>
		<path style="fill:#525244;" d="M480.963,647.972c-0.384,0.338-0.769,0.675-1.154,1.013
			C480.193,648.648,480.578,648.31,480.963,647.972z"/>
		<path style="fill:#E3D6B7;" d="M108.095,653.996c-0.36-0.367-0.719-0.734-1.079-1.102
			C107.376,653.261,107.736,653.628,108.095,653.996z"/>
		<path style="fill:#525244;" d="M180.955,600.958c-0.318-0.35-0.635-0.699-0.953-1.05
			C180.32,600.258,180.637,600.608,180.955,600.958z"/>
		<path style="fill:#525244;" d="M179.89,598.915c-0.292-0.323-0.585-0.646-0.877-0.97
			C179.305,598.269,179.597,598.592,179.89,598.915z"/>
		<path style="fill:#E3D6B7;" d="M25.901,655.994c0.358,0.528,0.716,1.056,1.075,1.584C26.618,657.05,26.259,656.522,25.901,655.994
			z"/>
		<path style="fill:#E3D6B7;" d="M110.08,656.994c-0.356-0.359-0.712-0.718-1.068-1.076
			C109.368,656.276,109.724,656.635,110.08,656.994z"/>
		<path style="fill:#E3D6B7;" d="M26.777,657.508c0.392,0.531,0.784,1.061,1.176,1.592
			C27.561,658.569,27.169,658.038,26.777,657.508z"/>
		<path style="fill:#3A4133;" d="M169.949,571.042c-0.122-0.162-0.245-0.325-0.367-0.487c0.161,0.122,0.322,0.245,0.484,0.366
			C170.067,570.92,169.949,571.042,169.949,571.042z"/>
		<path style="fill:#525244;" d="M129.022,563.028c0.065-0.138,0.129-0.275,0.194-0.413c-0.081,0.121-0.161,0.243-0.242,0.364
			C128.973,562.98,129.022,563.028,129.022,563.028z"/>
		<path style="fill:#E3D6B7;" d="M114.09,663.979c-0.354-0.36-0.709-0.72-1.063-1.081
			C113.381,663.259,113.735,663.619,114.09,663.979z"/>
		<path style="fill:#525244;" d="M470.005,536.006c-0.157,0.124-0.314,0.248-0.471,0.372c0.008-0.276,0.16-0.405,0.455-0.387
			C469.989,535.991,470.005,536.006,470.005,536.006z"/>
		<path style="fill:#AE9E7B;" d="M156.766,671.043c-0.07-0.362-0.139-0.724-0.209-1.086
			C156.627,670.319,156.696,670.681,156.766,671.043z"/>
		<path style="fill:#E3D6B7;" d="M335.056,529.121c0.345-0.365,0.69-0.731,1.034-1.097
			C335.746,528.39,335.401,528.756,335.056,529.121z"/>
		<path style="fill:#E3D6B7;" d="M123.727,683.859c-0.257-0.308-0.513-0.616-0.771-0.924
			C123.213,683.244,123.47,683.551,123.727,683.859z"/>
		<path style="fill:#3A4133;" d="M427.872,342.86c0.349-0.31,0.698-0.621,1.045-0.933c-0.002-0.002,0.18,0.179,0.183,0.182
			c-0.323,0.337-0.649,0.67-0.972,1.006C428.131,343.118,427.872,342.86,427.872,342.86z"/>
		<path style="fill:#3A4133;" d="M380.124,346.143c-0.2,0.113-0.401,0.225-0.601,0.338c0.124-0.19,0.248-0.38,0.371-0.571
			C379.893,345.909,380.124,346.143,380.124,346.143z"/>
		<path style="fill:#E3D6B7;" d="M126.982,696.003c-0.28-0.205-0.382-0.483-0.307-0.834
			C126.769,695.45,126.872,695.728,126.982,696.003z"/>
		<path style="fill:#AE9E7B;" d="M454.999,368.058c0.29-0.327,0.58-0.654,0.87-0.981C455.58,367.404,455.29,367.731,454.999,368.058
			z"/>
		<path style="fill:#E3D6B7;" d="M301.119,703.985c-0.361-0.363-0.722-0.725-1.084-1.088
			C300.396,703.26,300.758,703.623,301.119,703.985z"/>
		<path style="fill:#525244;" d="M543.319,487.949c-0.553-0.001-1.107-0.002-1.664-0.004
			C542.207,487.947,542.763,487.948,543.319,487.949z"/>
		<path style="fill:#E3D6B7;" d="M308.088,718.995c-0.353-0.369-0.706-0.739-1.059-1.108
			C307.382,718.256,307.735,718.625,308.088,718.995z"/>
		<path style="fill:#E3D6B7;" d="M125.047,722.13c0.356-0.363,0.713-0.725,1.069-1.088
			C125.759,721.404,125.403,721.767,125.047,722.13z"/>
		<path style="fill:#E3D6B7;" d="M124.047,723.118c0.361-0.358,0.723-0.716,1.084-1.074
			C124.769,722.402,124.408,722.76,124.047,723.118z"/>
		<path style="fill:#E3D6B7;" d="M123.031,724.089c0.363-0.342,0.726-0.684,1.089-1.026
			C123.757,723.405,123.394,723.747,123.031,724.089z"/>
		<path style="fill:#525244;" d="M136.351,144.376c-0.268,0.178-0.536,0.357-0.804,0.535c0.042-0.406,0.084-0.812,0.124-1.219
			C135.905,143.913,136.132,144.141,136.351,144.376z"/>
		<path style="fill:#141C12;" d="M273.943,180.84c4.014,0.393,8.027,0.786,12.041,1.179c13.99,1.867,27.98,3.734,41.969,5.601
			c26.559,10.821,39.493,21.565,48.237,49.408c0.059,0.987-0.04,2.014,0.199,2.955c3.729,14.668,3.057,29.319-0.079,43.97
			c-6.82,30.349-31.641,41.235-55.262,41.893c-14.329,0.399-28.711-1.057-43.069-1.68c-11.981-1.334-23.961-2.669-35.941-4.003
			c-0.302-0.136-0.619-0.196-0.95-0.179c-0.357-0.288-0.682-0.768-1.077-0.835c-15.66-2.664-31.326-5.29-46.992-7.921
			c-25.681-5.514-47.801-21.716-56.329-47.258c-4.039-12.096-5.546-25.508-5.638-38.216c-0.115-15.913,6.017-27.805,12.7-41.8
			c0.146-0.292,0.293-0.585,0.439-0.877c0,0-0.096,0.105-0.097,0.104c0.793-0.911,1.586-1.822,2.379-2.732
			c-0.097-0.084-0.194-0.167-0.292-0.251c0.091,0.09,0.183,0.181,0.273,0.269c0.669-0.677,1.34-1.351,2.01-2.026
			c-0.002,0.004-0.004,0.007-0.008,0.009c1.942-1.396,3.885-2.791,5.829-4.185c0,0-0.009,0.134-0.01,0.132
			c0.564-0.721,1.129-1.439,1.693-2.158c-0.259,0.02-0.517,0.04-0.769,0.053c8.375,2.73,20.209-0.673,29.032-0.418
			c10.286,0.297,20.489,1.885,30.715,2.904c2.228,0.263,4.456,0.526,6.684,0.789c14.118,1.43,28.236,2.86,42.354,4.291
			c0.657,0.069,1.313,0.138,1.97,0.207C268.618,180.323,271.28,180.581,273.943,180.84z M332.363,272.092
			c-0.799-13.269-3.635-29.01-15.741-36.889c-14.483-9.426-22.824,8.238-24.351,20.657c-1.451,11.804,3.438,30.768,15.287,36.395
			C322.882,299.532,329.237,283.347,332.363,272.092z M210.84,261.385c-0.429-0.13-0.858-0.26-1.287-0.391
			c-0.397-12.265-4.553-32.492-17.301-37.763c-14.281-5.904-18.921,4.282-19.989,16.599c-1.039,11.975,2.93,34.691,16.26,39.289
			C202.895,284.077,206.703,271.257,210.84,261.385z"/>
		<polygon style="fill:#E3D6B7;" points="31.008,662.015 31.25,661.782 30.985,661.992 		"/>
		<polygon style="fill:#E3D6B7;" points="292.01,692.029 291.747,692.254 291.974,691.993 		"/>
		<path style="fill:#3A4133;" d="M373.005,627.996c-0.13-0.067-0.261-0.134-0.391-0.202c0.127,0.07,0.255,0.141,0.382,0.211
			C372.996,628.005,373.005,627.996,373.005,627.996z"/>
		<path style="fill:#141C12;" d="M517.125,181.72c0.643,0.417,1.287,0.834,1.93,1.25c5.812,4.533,9.145,10.574,9.729,17.808
			c0.599,7.42,0.528,14.893,0.75,22.344c-3.825,12.547-5.713,29.904-15.178,39.682c-5.88,6.074-17.088,13.431-25.329,9.039
			C465.684,252.924,481.865,164.274,517.125,181.72z M520.793,215.344c-2.069-11.135-5.136-32.917-20.086-18.528
			c-10.133,9.753-13.683,27.858-13.777,41.315c-0.081,11.452,5.312,32.605,18.402,18.647
			C515.466,245.973,520.224,229.835,520.793,215.344z"/>
		<path style="fill:#E3D6B7;" d="M477.958,178.233c0,6.494,0.767,29.825-13.313,22.227c-4.781-2.58-3.546-6.82-1.908-11.128
			C466.004,180.74,470.178,180.466,477.958,178.233z"/>
		<path style="fill:#525244;" d="M499.008,545.994c-0.133-0.074-0.265-0.148-0.398-0.223c0.128,0.079,0.256,0.158,0.383,0.237
			C498.993,546.008,499.008,545.994,499.008,545.994z"/>
		<path style="fill:#525244;" d="M503.984,543.013c-0.13-0.084-0.26-0.167-0.389-0.251c0.141,0.073,0.281,0.146,0.422,0.218
			C504.016,542.979,503.984,543.013,503.984,543.013z"/>
		<path style="fill:#525244;" d="M543.905,487.782c0.132,0.169,0.263,0.337,0.395,0.506c-0.168-0.127-0.335-0.255-0.505-0.383
			C543.792,487.904,543.905,487.782,543.905,487.782z"/>
		<path style="fill:#525244;" d="M198.005,618.007c0.068-0.128,0.135-0.255,0.203-0.383c-0.072,0.124-0.143,0.247-0.215,0.371
			C197.993,617.995,198.005,618.007,198.005,618.007z"/>
		<path style="fill:#3A4133;" d="M148.975,392.98c0.344-0.325,0.689-0.649,1.033-0.974c0,0-0.014-0.014-0.014-0.014
			c-0.326,0.343-0.652,0.686-0.977,1.029L148.975,392.98z"/>
		<path style="fill:#3A4133;" d="M149.016,393.021c-0.085,0.132-0.169,0.263-0.254,0.395c0.071-0.145,0.142-0.29,0.212-0.436
			C148.975,392.98,149.016,393.021,149.016,393.021z"/>
		<path style="fill:#525244;" d="M332.363,272.092c-3.126,11.255-9.481,27.44-24.805,20.163
			c-11.849-5.627-16.738-24.592-15.287-36.395c1.526-12.419,9.868-30.082,24.351-20.657
			C328.728,243.082,331.564,258.823,332.363,272.092z"/>
		<path style="fill:#525244;" d="M210.84,261.385c-4.137,9.873-7.945,22.693-22.318,17.735c-13.33-4.598-17.298-27.315-16.26-39.289
			c1.068-12.317,5.708-22.503,19.989-16.599c12.749,5.271,16.905,25.498,17.301,37.763
			C209.982,261.124,210.411,261.254,210.84,261.385z"/>
		<path style="fill:#3A4133;" d="M520.793,215.344c-0.569,14.49-5.327,30.629-15.462,41.435
			c-13.089,13.957-18.482-7.195-18.402-18.647c0.095-13.458,3.644-31.562,13.777-41.315
			C515.657,182.427,518.724,204.209,520.793,215.344z"/>
	</g>
</g>
<path style="fill:#AE9E7B;" d="M308.016,718.907c0,0.004,0,0.009,0.001,0.013c0.024,0.025,0.047,0.05,0.071,0.075
	C308.088,718.995,308.016,718.907,308.016,718.907z"/>
<path style="fill:#AE9E7B;" d="M342.664,685.499c-6.906,12.68-4.837,27.727-22.717,31.334c0,0.562,0,1.092,0,1.607l-0.047,3.602
	c-0.007-0.014-0.012-0.028-0.019-0.041l0.019,0.041l-0.019,1.438c0,0,3.31,13.611,3.128,18.162s-2.345,14.638-2.345,14.638
	l6.908-4.251C349.463,732.839,352.264,712.149,342.664,685.499z"/>
<path style="fill:#AE9E7B;" d="M570.905,654.073c-13.428,15.854-26.732,30.841-45.218,40.906
	c-19.989,10.884-39.654,16.276-61.911,19.808l-30.715,1.33c-14.28-1.364-28.669-1.985-42.61-5.559
	c-7.855-2.014-24.432-12.66-29.942-3.782c-2.877,4.635-0.865,14.43-2.206,19.925c-1.604,6.57-4.636,12.964-8.166,18.726
	c-1.708,2.789-3.525,5.207-5.445,7.365c-0.114,0.098-0.24,0.223-0.387,0.399c-2.953,3.515-17.788,14.602-30.68,16.773
	c-12.892,2.171-30.612-1.566-30.612-1.566c-49.967-14.752-79.91-61.02-91.881-109.426c-6.255,7.103-15.872,14.985-20.409,23.336
	c-2.903,5.343-2.512,12.098-4.11,17.929c-3.908,14.252-13.388,26.871-26.657,33.685c-32.531,16.706-65.688-7.533-90.918-25.924
	c-10.614,4.776-17.605,8.769-6.153,18.047c9.259,7.502,23.312,10.934,34.576,14.071c24.893,6.933,50.768,9.761,76.306,13.235
	c46.28,6.296,92.178,16.978,138.639,21.415c21.926,2.094,44.701,3.146,65.43-5.55c20.444-8.577,36.93-21.824,59.171-26.343
	c22.161-4.503,45.266-4.162,67.682-7.113c22.415-2.951,44.391-7.992,65.878-15.028c17.621-5.77,45.839-14.889,55.911-32.022
	C617.221,670.433,584.295,657.151,570.905,654.073z"/>
<path style="fill:#AE9E7B;" d="M295.18,694.197c-0.049-0.096-0.098-0.193-0.147-0.289c0,0,0.101,0.066,0.101,0.066
	c-0.321-0.431-0.642-0.862-0.964-1.293c-0.042-0.016-0.084-0.031-0.126-0.047c-3.017-4.107-6.048-7.95-8.832-11.492
	c-0.845-1.091-1.692-2.173-2.542-3.249c-0.081-0.104-0.164-0.211-0.244-0.314l-0.002,0.004
	c-9.193-11.611-18.805-22.252-31.757-30.853c-9.515-6.318-38.693-20.013-44.354-1.623c0.238,0.132,0.476,0.264,0.714,0.396
	c-0.338,0.167-0.676,0.333-1.014,0.5l-0.009,0.009c-2.43,10.352-0.607,20.345,2.461,30.258c0.456,1.473,0.455,3.087,0.666,4.635
	c7.483,14.517,14.068,28.534,24.942,40.948c10.579,12.076,24.167,20.256,37.345,29.164c2.526,1.028,5.052,2.055,7.578,3.083
	c0,0-0.078-0.034-0.078-0.033c1.012,0.347,2.023,0.694,3.035,1.041c0.681,0.337,1.363,0.674,2.044,1.011
	c0,0-0.078-0.091-0.078-0.091c4.332,0.89,8.664,1.78,12.997,2.67c7.906,0.695,11.332-0.961,14.319-6.81
	c1.281-1.657,2.12-3.895,2.389-6.833C315.359,726.076,305.567,708.601,295.18,694.197z"/>
<path style="fill:#E3D6B7;" d="M341.344,460.854c1.186,1.712,2.286,3.298,3.386,4.885c0.411,0.79,0.821,1.581,1.232,2.371
	c0,0-0.06-0.072-0.06-0.072c0.669,1.328,1.339,2.657,2.009,3.985l-0.019,0.019c3.309,9.922,7.567,23.281,5.434,36.507
	c-2.133,13.225-4.112,16.373-4.112,16.373l3.773,0.007c0.005,0.025,0.007,0.052,0.012,0.077c0.792-0.022,1.584-0.048,2.377-0.072
	l0.083,0l0-0.003c5.912-0.18,11.823-0.405,17.735-0.408c1.844-0.001,3.688,0.873,5.532,1.346
	C387.395,500.255,378.743,451.498,341.344,460.854z"/>
<g>
	<path style="fill:#141C12;" d="M71.074,531.935c-0.019-0.009-0.039-0.018-0.058-0.027c-0.009-0.001-0.018-0.001-0.026-0.002
		C70.99,531.906,71.074,531.935,71.074,531.935z"/>
	<path style="fill:#141C12;" d="M603.411,458.44c-6.385-33.288-20.032-62.826-37.581-91.58
		c-8.039-13.172-14.956-27.605-25.152-39.303c-10.736-12.319-24.365-22.444-36.61-33.217c12.707-12.308,25.028-22.886,32.071-39.65
		c6.822-16.237,8.487-34.84,6.383-52.237c-0.949-7.843-2.836-15.556-6.535-22.581c-3.589-6.814-10.464-11.457-13.713-18.216
		c-3.408-7.09-2.834-16.998-4.792-24.819c-2.064-8.245-4.675-16.319-8.022-24.135C457.494-8.637,282.435-25.003,187.594,52.76
		C138.932,92.66,107.57,159.668,107.17,222.579c-0.18,28.266,6.217,57.525,23.574,80.376c18.057,23.774,44.067,34.267,70.8,45.317
		c-11.387,12.139-22.763,24.265-33.161,35.35c-19.303-8.58-38.099-13.134-58.819-17.524c-14.799-3.136-35.298-11.44-50.261-6.494
		c-13.115,4.335-20.311,16.874-17.096,30.191c2.163,8.96,7.799,17.114,9.885,25.99c2.024,8.612-1.357,9.509-7.293,15.381
		c-11.753,11.626-15.719,26.746-11.028,42.561c4.203,14.172-0.028,26.914,9.816,40.166c8.147,10.967,10.949,24.195,22.914,32.499
		c11.996,8.326,27.283,9.415,40.709,3.956c2.421,2.081,4.813,4.137,7.38,6.344c-5.118,6.591-10.283,13.243-15.245,19.633
		c-6.928,0.344-17.955-8.177-25.381-10.064c-10.594-2.692-21.752-3.031-32.283,0.138c-15.353,4.619-27.865,16.285-33.56,31.268
		c-15.412,40.545,16.613,81.418,40.917,110.333c25.23,18.391,58.387,42.63,90.918,25.924c13.269-6.814,22.749-19.433,26.657-33.685
		c1.599-5.831,1.208-12.587,4.11-17.929c4.537-8.351,14.155-16.232,20.409-23.336c11.971,48.405,41.914,94.673,91.88,109.425
		c9.721,2.458,19.512,3.502,29.489,1.669c1.42-0.261,2.944,0.044,4.419,0.087c14.123-5.977,24.88-11.119,33.217-24.727
		c3.53-5.762,6.563-12.156,8.166-18.726c1.341-5.495-0.67-15.289,2.206-19.925c5.51-8.878,22.087,1.768,29.942,3.782
		c13.941,3.574,28.33,4.195,42.61,5.559c10.238-0.443,20.477-0.886,30.715-1.33c22.257-3.533,41.922-8.924,61.911-19.809
		c18.485-10.066,31.789-25.052,45.218-40.906C609.595,598.7,615.862,523.356,603.411,458.44z M565.587,389.347
		c7.458,15.675,26.734,42.112,14.353,58.431c-8.17,10.769-27.139,30.704-42.268,29.02c11.815-29.033,23.778-55.318,26.638-86.84
		C564.736,389.754,565.161,389.55,565.587,389.347z M473.962,519.05c0.045-1.318,0.09-2.636,0.134-3.954
		c0.005-4.401,0.009-8.802,0.014-13.202c-4.703-11.048-8.053-22.442-16.103-31.675c-7.704-8.838-16.822-12.221-27.36-16.48
		c12.466-15.269,18.657-27.172,40.428-23.514c17.227,2.894,31.971,15.567,41.057,29.762c18.098,27.899-14.482,61.103-37.853,73.066
		c-1.425,0.985-2.85,1.969-4.275,2.954c-0.157,0.124-0.314,0.248-0.471,0.372c0.008-0.276,0.16-0.405,0.455-0.387
		c1.321-5.43,2.643-10.859,3.965-16.288C473.904,519.485,473.906,519.267,473.962,519.05z M391.934,618.264
		c-10.713-26.218-23.811-45.244-52.58-53.377c-0.119-0.461-0.239-0.922-0.358-1.384c20.742-7.303,51.833-21.079,70.872-4.59
		c13.311,11.528,27.635,38.3,18.102,56.057c-2.284,18.9-18.708,35.699-36.91,39.71C395.279,642.442,394.095,630.355,391.934,618.264
		z M196.911,429.813c-2.743,0.584-5.486,1.168-8.358,1.779c-3.05-8.924-6.133-17.944-9.226-26.996
		c9.818-1.773,22.829,5.534,27.731,15.407C209.929,428.448,206.932,430.077,196.911,429.813z M197.743,439.092
		c-1.11,2.804-2.017,5.096-2.956,7.466C191.187,442.221,191.69,440.805,197.743,439.092z M220.538,500.534
		c0,6.679,0,12.317,0,18.299C209.97,516.096,217.575,505.391,220.538,500.534z M209.442,494.021
		c-2.189-6.453-4.335-12.777-6.969-20.542c5.185,2.172,11.492,2.851,12.758,5.74C218.19,485.97,215.803,489.992,209.442,494.021z
		 M220.994,566.242c1.484-5.136,4.933-8.696,5.497-14.499c0.488-5.02-2.032-10.521-1.164-15.218
		c16.154,5.679,40.608,39.792,37.171,57.416c-11.387,1.331-22.628,2.644-34.123,3.987
		C227.221,587.3,218.332,575.453,220.994,566.242z M232.684,477.361c0,7.631,0,13.812,0,21.004
		C223.872,490.508,225.823,484.363,232.684,477.361z M249.582,542.119c-10.375-10.482-20.059-13.038-18.144-29.262
		c5.01,2.933,10.457,7.335,15.83,9.448c3.552,1.397,7.035,1.161,10.216,3.324c7.982,5.426,9.904,13.945,20.779,15.862
		c4.443,0.783,8.972-1.296,13.199-0.535c5.067,0.912,6.891,4.671,11.005,7.152c6.216,3.749,21.44,1.219,24.884,6.868
		c-13.591,11.99-27.49,23.388-39.397,37.042c-14.792,16.963-13.429-7.08-17.121-17.927
		C266.639,561.771,258.646,551.276,249.582,542.119z M306.242,536.466c-9.181-9.216-5.402-16.726,2.041-24.508
		c0.371-0.883,0.742-1.766,1.246-2.966c-7.107,1.234-13.86,2.408-20.687,3.593c-0.771,4.127-0.771,4.127,4.56,4.925
		c-2.234,22.432-25.946,11.562-27.295-5.25c-1.62-20.189,16.882-30.622,30.843-40.671c-12.523-3.212-22.825,3.586-30.467,13.016
		c-4.41,5.441-9.183,29.131-16.542,25.704c-0.36-0.359-0.72-0.719-1.079-1.078c-0.315-0.391-0.63-0.781-0.946-1.172
		c-1.353-2.666-2.705-5.332-4.058-7.998l0.076,0.079c-0.578-2.039-1.157-4.077-1.735-6.116c-0.042-1.345-0.083-2.69-0.125-4.035
		c-0.13-0.328-0.125-0.654,0.015-0.978c0.022-0.677,0.044-1.353,0.066-2.03c0.592-2.827,1.184-5.654,1.776-8.481l-0.139-0.275
		l0.221-0.215c0.637-1.469,1.273-2.938,1.91-4.408c5.795-14.723,17.461-22.709,32.037-27.505
		c-24.591-14.958-38.324,27.026-64.027,19.244c-1.122-0.63-2.244-1.261-3.366-1.891l0.198-0.014
		c-0.395-0.382-0.789-0.765-1.184-1.147l-0.148,0.21c-0.625-0.723-1.249-1.446-1.874-2.169l0.138,0.023
		c-0.41-0.709-0.82-1.417-1.23-2.126l0.244,0.061c-2.859-4.196-2.175-8.326,0.228-12.425l-0.094,0.105
		c0.292-0.443,0.585-0.886,0.877-1.329c0.327-0.351,0.654-0.702,0.981-1.053l-0.271-0.111c0.629-0.677,1.258-1.355,1.886-2.033
		l0.196,0.054c0.482-0.519,0.964-1.038,1.447-1.557c0.577-0.483,1.154-0.966,1.731-1.449l-0.084,0.291
		c0.418-0.386,0.836-0.772,1.253-1.158c0,0-0.189,0.255-0.189,0.255c0.429-0.358,0.858-0.717,1.287-1.075l-0.149,0.165
		c0.396-0.33,0.792-0.66,1.188-0.99l-0.027,0.015c1.282-0.811,2.563-1.623,3.845-2.434l-0.178,0.136
		c1.09-0.631,2.18-1.263,3.27-1.894l-0.1,0.116c0.704-0.415,1.408-0.83,2.112-1.244c0,0-0.191,0.147-0.191,0.147
		c14.315-8.529,29.51-10.393,45.53-6.012l-0.198-0.201c9.105,3.246,18.211,6.492,27.316,9.739l0.075-0.026
		c0.886,0.534,1.771,1.068,2.657,1.602c0.417,0.29,0.833,0.581,1.25,0.871l-0.162-0.267c0.683,0.444,1.366,0.889,2.049,1.333
		l-0.104-0.129c1.062,0.674,2.125,1.349,3.187,2.023l-0.214-0.118c0.36,0.317,0.72,0.634,1.08,0.951l0.02-0.072
		c0.677,0.447,1.354,0.894,2.031,1.342l-0.171-0.13c0.996,0.751,1.991,1.503,2.987,2.254l-0.058-0.037
		c0.447,0.332,0.893,0.664,1.34,0.997c19.28,16.665,31.451,36.719,28.584,63.203c-0.665,6.141-3.845,12.009-5.868,18.002
		l0.029-0.115c-0.347,0.68-0.694,1.361-1.041,2.041c-0.307,0.326-0.615,0.652-0.922,0.978c-0.373,0.682-0.746,1.364-1.119,2.046
		C327.38,540.281,315.452,545.711,306.242,536.466z M204.9,361.551c5.459-9.932,11.752-11.197,29.375-5.855
		c-1.885,5.261-3.782,10.552-5.877,16.398C220.461,367.141,213.92,364.155,204.9,361.551z M337.06,545.203
		c3.066-4.262,6.311-8.41,9.123-12.833c1.415-2.225,2.045-4.95,3.03-7.448c7.09-17.815,5.563-35.415-1.322-52.88
		c0,0,0.066,0.074,0.066,0.074c-0.685-1.359-1.37-2.719-2.056-4.078l0.06,0.073c-0.411-0.79-0.822-1.581-1.232-2.371
		c-1.1-1.587-2.199-3.174-3.386-4.885c37.399-9.356,46.051,39.401,37.382,65.016c-2.138,6.996-6.806,12.061-12.669,16.06
		c-2.862,1.952-6.07,3.394-9.122,5.067c-7.635,4.037-15.068,2.518-22.536-1.511C335.286,545.392,336.173,545.298,337.06,545.203z
		 M437.835,618.015c4.249-26.556-5.273-43.596-19.509-64.984c16.585,5.612,41.021,9.972,51.028,26.066
		c11.683,18.79,11.699,45.202,2.503,64.733c-6.282,11.873-15.29,22.4-28.478,26.581c-15.594,4.944-28.941-2.201-42.549-9.128
		C419.714,650.891,431.14,638.92,437.835,618.015z M444.219,545.35c-18.387,3.25-40.65-5.174-59.146-6.64
		c2.398-5.816,4.64-11.256,6.883-16.696c3.795-18.805-0.082-32.399-4.51-50.991c17.248-4.05,35.22-13.056,52.335-4.137
		c14.543,7.579,24.681,24.854,25.12,41.061C462.77,523.649,463.412,541.957,444.219,545.35z M516.867,448.418
		c-8.773-8.91-15.888-18.089-27.915-22.563c-11.571-4.304-23.194-4.907-35.328-6.093c8.059-17.528,11.987-36.189,33.992-38.5
		c19.469-2.044,32.743,11.295,44.348,24.736c15.464,23.202,5.018,44.764-4.67,67.643
		C523.825,465.252,520.346,456.835,516.867,448.418z M547.796,413.847c-5.204-7.713-10.504-15.567-15.803-23.422
		c-11.259-9.457-21.926-16.59-37.004-17.705c-6.151-0.455-12.364-0.12-18.238,1.945c-4.639,1.631-9.553,7.434-14.295,7.3
		c8.402-25.465,30.052-59.533,61.581-40.015C552.054,353.254,553.335,389.062,547.796,413.847z M523.051,328.947
		c0.405,0.125,0.811,0.25,1.216,0.375c-0.275,0.624-0.704,0.527-1.287-0.292c-31.432-7.901-54.984,9.106-67.111,38.047
		c-0.274,0.31-0.549,0.619-0.823,0.929c-2.666,13.136-3.168,28.05-7.866,40.504c-4.13,10.946-12.103,23.104-19.383,32.175
		c-7.593,9.462-19.925,14.033-31.309,17.025c-5.454,1.433-13.393,3.588-18.899,1.546c-5.269-1.954-8.511-6.98-14.198-8.951
		c-9.563-3.315-22.016,1.024-30.598-3.126c-9.636-4.659-16.388-16.089-26.455-21.402c-26.692-14.085-51.037-15.372-79.931-8.486
		c3.903-14.474,6.916-29.487,13.56-43.428c2.402-5.483,4.804-10.967,7.038-16.065c7.121,0.811,14.247,1.579,21.361,2.445
		c8.556,1.04,7.773,1.154,12.275,7.021c7.685,10.015,16.509,15.334,28.674,18.81c29.823,8.523,63.205,3.268,90.597-10.776
		c11.767-6.033,22.656-13.985,32.232-23.084c9.605-9.126,16.976-20.13,27.412-28.401c5.602-4.439,11.28-8.313,16.409-13.376
		c5.599-5.527,7.088-9.329,14.702-6.811C502.831,307.648,515.527,319.054,523.051,328.947z M289.774,365.468
		c0.542-0.805,1.084-1.609,1.625-2.414c22.982,0,45.068,1.392,67.987-1.76c23.736-3.265,45.943-10.611,68.486-18.433
		c0.349-0.31,0.698-0.621,1.047-0.931c0.318-0.256,0.64-0.508,0.962-0.76c0.13,0.173,0.261,0.346,0.391,0.518
		c-0.39,0.142-0.78,0.284-1.169,0.425c-0.326,0.333-0.652,0.667-0.978,1c-21.792,16.144-41.854,31.357-69.287,36.221
		c-12.187,2.161-24.923,2.86-37.132,0.497C309.411,377.45,300.741,370.577,289.774,365.468z M515.87,172.111
		c2.357,2.497,4.714,4.995,7.072,7.492c6.017,5.704,7.678,13.393,8.731,21.012c1.013,7.328,0.836,14.821,1.182,22.242
		c-0.333,23.102-12.776,50.762-34.666,60.911c-22.152,10.269-47.713-1.37-51.931-25.993c-0.042-0.611-0.084-1.221-0.125-1.832
		c-0.071-0.823-0.142-1.646-0.213-2.47c0,0,0.033,0.096,0.033,0.096c-0.652-4.203-1.303-8.407-1.955-12.61
		c0.009-0.648,0.018-1.296,0.027-1.943c1.1-9.389,2.159-18.783,3.356-28.16c0.131-1.023,1.05-1.946,1.604-2.915
		c0,0-0.053,0.082-0.053,0.082c0.13-0.293,0.258-0.588,0.385-0.882c3.441-19.463,13.535-30.68,30.391-40.169
		c8.122-3.779,16.24-4.33,24.352,0.027C507.997,168.702,511.934,170.406,515.87,172.111z M135.673,143.694
		c11.102-31.51,32.008-60.752,58.133-81.534c29.289-23.299,60.884-34.353,97.028-41.889c31.682-6.606,64.629-1.936,95.816,4.819
		c35.479,7.685,60.817,28.683,86.459,52.807c20.155,22.03,31.777,47.926,35.413,76.28c-8.67-0.406-17.102-0.8-25.533-1.195
		c-17.809,10.567-32.034,19.064-40.685,38.954c-8.78,20.189-7.23,42.617-8.213,64.113c-0.001,0.302-0.004,0.605-0.008,0.907
		c0.05,0.608,0.1,1.217,0.15,1.825c9.223,17.903,14.802,34.403,36.53,39.966c-21.398,23.234-59.002,44.096-90.639,47.395
		c-0.2,0.113-0.401,0.225-0.601,0.338c0.124-0.19,0.248-0.38,0.372-0.57c6.039-5.268,12.165-10.44,18.076-15.847
		c2.228-2.038,3.959-4.618,5.917-6.951c0.684-1.037,1.369-2.074,2.053-3.111l0.04-0.062c1.321-1.99,2.643-3.981,3.964-5.971
		l-0.019-0.132c13.037-35.107,17.571-71.016,5.362-107.341c-10.935-32.534-34.423-51.302-67.98-58.598
		c-35.336-7.683-72.229-8.555-108.11-12.45c-33.381-3.623-73.529-12.811-102.847,8.929c-0.268,0.178-0.536,0.357-0.804,0.535
		C135.59,144.506,135.632,144.1,135.673,143.694z M178.939,326.02l0.054,0.024c-0.456-0.262-0.911-0.524-1.367-0.786l0.161,0.249
		c-0.713-0.397-1.425-0.794-2.138-1.191l0.024,0.187c-1.56-0.832-3.121-1.664-4.681-2.495c-1.077-0.621-2.155-1.241-3.232-1.862
		l0.102,0.122c-3.275-2.095-6.549-4.19-9.824-6.285l-0.02-0.018c-0.743-0.62-1.485-1.24-2.228-1.859l0.103,0.104
		c-1.448-1.242-2.895-2.484-4.343-3.726l0.207-0.442l-0.22,0.443c-0.673-0.66-1.346-1.32-2.019-1.981l0.41-0.075l-0.415,0.04
		c-1.326-1.352-2.653-2.703-3.979-4.055l0.067,0.042c-0.673-0.717-1.345-1.434-2.018-2.151l0.117,0.088
		c-1.067-1.285-2.135-2.57-3.202-3.855l0.279-0.155c-0.388-0.413-0.776-0.826-1.164-1.239l0.13,0.179
		c-0.81-1.078-1.621-2.156-2.431-3.235c-0.151-0.156-0.168-0.325-0.05-0.507c-0.407-0.528-0.814-1.055-1.221-1.583l-0.123-0.343
		c-2.127-3.782-4.254-7.564-6.381-11.347l0.175,0.013c-0.656-1.391-1.311-2.781-1.967-4.172l0.117,0.069
		c-2.87-11.113-7.294-22.1-8.217-33.372c-1.164-14.223,0.529-28.68,0.99-43.035c2.546-16.525,6.726-32.356,19.913-44.006
		c8.436-5.256,13.4-13.153,64.805-10.311c0.938,0.166,1.876,0.328,2.816,0.478c5.638,0.353,11.275,0.642,16.909,0.954
		c14.796,1.296,32.483,3.272,53.731,6.107c0,0,0,0,0,0c0,0,0,0,0,0c121.83,16.256,107.406,31.538,124.279,52.37v0
		c1.685,4.861,3.369,9.722,5.054,14.583l-0.083-0.12c1.164,6.547,2.328,13.093,3.492,19.64c6.122,37.964-6.622,83.123-41.74,102.764
		c-18.245,10.204-38.504,11.776-59.021,11.456c-22.961-0.359-47.504-2.26-69.816-7.887
		C219.48,340.738,198.602,335.496,178.939,326.02z M209.112,371.564c6.715,2.163,13.578,6.574,14.284,13.523
		c0.845,8.323-5.716,22.328-7.776,30.242c-9.579-13.462-22.544-20.55-39.391-22.619C184.92,381.583,192.542,366.228,209.112,371.564
		z M58.202,433.733c0.994,3.05,2.85,5.784,3.111,9.039c0.158,1.971-1.704,4.653-1.147,6.317c1.881,5.619,7.728,6.419,12.963,8.463
		c10.467,4.088,30.42,8.247,26.698,23.501c-0.245,0.41-0.49,0.819-0.734,1.229l0.24-0.206c-0.439,0.677-0.877,1.354-1.316,2.031
		c-0.252,0.315-0.504,0.631-0.757,0.946c-0.408,0.345-0.817,0.691-1.225,1.036c-5.26,3.42-11.113,3.016-16.968,2.603
		c-13.66-1.215-29.327-5.335-35.271-19.234C37.418,454.545,48.26,443.309,58.202,433.733z M98.472,540.774
		c-11.197,4.476-21.248-0.37-29.545-7.206c-1.042-0.981-2.084-1.962-3.126-2.942c0.171-0.299,0.342-0.598,0.513-0.897
		c1.567,0.726,3.135,1.453,4.702,2.179c7.283,0.448,14.566,0.896,21.849,1.343c1.895-0.548,9.504-4.076,11.382-2.386
		C108.23,534.449,100.741,539.867,98.472,540.774z M111.903,508.949c-1.801,9.501-16.456,13.356-24.475,13.977
		c-21.918,1.697-36.592-12.456-41.379-32.473c9.542,2.873,17.766,5.349,25.991,7.824c6.975-0.011,13.949-0.023,20.924-0.034
		C100.862,497.809,114.293,496.34,111.903,508.949z M109.626,387.077c-16.945-4.184-39.245-6.41-54.577-14.619
		c9.455-9.943,29.916-1.113,40.99,1.217c16.92,3.559,37.126,5.17,52.852,12.336c13.414,5.134,20.022,16.914,24.537,29.809
		c6.022,17.199,11.331,34.68,17.145,51.954c5.512,16.376,11.004,32.76,16.582,49.114c3.51,10.292,17.25,34.216,5.209,42.808
		c-11.046-25.737-19.21-52.701-28.233-79.212c-9.245-27.159-16.603-54.829-32.185-79.014
		C140.141,391.611,123.972,390.619,109.626,387.077z M128.881,563.048C128.881,563.048,128.882,563.048,128.881,563.048
		C128.558,563.291,128.305,563.481,128.881,563.048z M128.53,563.099c0.023-0.003,0.048-0.007,0.08-0.012
		C128.579,563.092,128.55,563.096,128.53,563.099z M128.095,718.011c-0.674,1.033-1.348,2.067-2.022,3.1l0.043-0.07
		c-0.331,0.337-0.663,0.675-0.994,1.012c-0.358,0.355-0.716,0.71-1.075,1.065l0.073-0.055c-0.363,0.342-0.726,0.684-1.089,1.026
		l0.04-0.046c-5.522,3.246-11.206,2.541-16.936,0.696c-33.711-8.14-56.036-31.174-75.164-59.15c-0.7-1.517-1.4-3.034-2.1-4.551
		l0.061,0.064c-0.353-0.695-0.706-1.39-1.06-2.085l0.081,0.082c-0.392-0.531-0.784-1.061-1.177-1.592l0.199,0.07
		c-0.358-0.528-0.717-1.056-1.075-1.584l0.079,0.09c-0.353-0.692-0.706-1.384-1.059-2.076c0,0,0.072,0.079,0.072,0.079
		c-1.697-5.029-3.395-10.058-5.092-15.087l0.045,0.081c-0.921-2.671-1.841-5.342-2.762-8.012c-0.405-4.706-1.108-9.409-1.148-14.118
		c-0.066-7.835,1.909-14.757,10.146-18.031c7.078-2.925,13.973-2.369,20.715,1.091c11.574,6.316,23.147,11.209,32.767,20.496
		c10.194,9.841,18.756,21.187,27.352,32.387c0.341,0.348,0.681,0.696,1.022,1.044c0.343,0.678,0.685,1.356,1.028,2.035
		c0.312,0.315,0.624,0.629,0.937,0.944c0.36,0.699,0.719,1.399,1.079,2.098l-0.041-0.104c0.688,1.356,1.376,2.712,2.065,4.068
		c0.312,0.317,0.624,0.634,0.935,0.951c0.349,0.686,0.698,1.373,1.048,2.059c0,0-0.044-0.061-0.044-0.061
		c2.015,4.023,4.03,8.046,6.045,12.069l-0.054-0.077c0.686,1.699,1.372,3.398,2.057,5.098l-0.138-0.08
		c0.257,0.307,0.515,0.615,0.772,0.922c0.983,3.77,1.965,7.54,2.948,11.311c0.094,0.281,0.196,0.559,0.307,0.834l0.011,0.009
		c2.974,7.231,4.172,14.545,1.044,22.065L128.095,718.011z M155.776,696.885c-3.569,9.864-8.101,19.027-18.032,24.627
		c0.562-3.688,1.091-7.156,1.62-10.624c-0.033-28.992-18.596-59.65-36.879-81.175c-9.093-10.705-19.77-20.699-31.396-28.6
		c-6.159-4.186-12.826-7.984-19.759-10.753c-6.979-2.787-13.443-2.228-20.53-3.707c-0.119-0.506-0.238-1.013-0.357-1.519
		c3.64-1.745,7.28-3.491,10.92-5.236c1.551-0.637,3.102-1.274,4.653-1.91l0.187-0.189l0.225,0.143
		c3.849-0.58,7.698-1.161,11.548-1.741c0.683,0.002,1.365,0.004,2.048,0.006c4.058,0.852,8.117,1.703,12.175,2.555l0.052-0.325
		c1.91,0.557,3.82,1.114,5.731,1.671c40.139,17.194,67.742,47.246,78.574,89.851c0.07,0.362,0.139,0.724,0.209,1.086
		C156.436,679.657,156.106,688.271,155.776,696.885z M187.318,637.865c-2.36,11.224-11.719,19.904-18.809,28.499
		c-5.38-13.437-10.355-27.075-16.805-40.037c-12.46-17.273-24.213-31.497-42.69-42.81c11.447-14.987,18.399-24.916,38.355-16.232
		c14.062,6.119,24.853,17,31.713,30.663l-0.069-0.003c0.292,0.323,0.585,0.647,0.877,0.97c0.056,0.329,0.093,0.66,0.112,0.992
		c0.318,0.35,0.635,0.7,0.953,1.05C186.137,612.286,189.949,625.358,187.318,637.865z M202.042,622.019
		c-0.34,0.342-0.681,0.684-1.021,1.026l0.038-0.02c-0.973,2.359-1.946,4.718-2.919,7.076c-0.349-0.049-0.698-0.097-1.047-0.146
		c0-2.301,0-4.603,0-6.904c-0.06-1.313-0.121-2.626-0.181-3.94c-0.012-0.417-0.025-0.834-0.037-1.251
		c-0.051-0.185-0.026-0.358,0.074-0.522c-0.696-2.114-1.393-4.228-2.089-6.342c-3.127-6.907-5.564-14.248-9.565-20.605
		c-4.359-6.926-10.168-12.939-15.345-19.349c-0.122-0.162-0.245-0.325-0.367-0.487c0.161,0.122,0.322,0.245,0.483,0.367
		c8.399,1.441,16.919,3.571,25.416,4.293c6.616,0.562,13.125-2.218,17.66,3.199c2.938,3.509,5.856,17.624,5.682,22.133
		c-0.272,7.069-6.109,9.659-11.701,14.466c-0.706,0.997-1.413,1.995-2.119,2.992l0.003-0.005c-0.333,0.379-0.665,0.758-0.998,1.137
		c-0.265,0.29-0.529,0.579-0.794,0.869C202.823,620.677,202.432,621.348,202.042,622.019z M312.519,749.076
		c-3.371,8.133-6.55,10.418-15.602,9.622c-4.332-0.89-8.665-1.78-12.997-2.671l0.078,0.091c-0.682-0.337-1.365-0.675-2.047-1.012
		c-1.011-0.347-2.022-0.693-3.033-1.04l0.078,0.033c-2.526-1.027-5.052-2.055-7.579-3.082
		c-13.178-8.908-26.766-17.088-37.345-29.164c-10.875-12.414-17.46-26.431-24.942-40.948c-4.298-9.421-6.396-19.248-5.115-29.605
		c0.225-1.817,1.303-3.529,1.988-5.289c0,0,0.009-0.009,0.009-0.009c0.097-0.3,0.197-0.598,0.3-0.896
		c5.661-18.39,34.839-4.695,44.354,1.623c17.742,11.781,29.219,27.383,41.943,44.108c-0.136,0.37-0.273,0.739-0.409,1.109
		c0.657,0.245,1.313,0.489,1.97,0.734c0.321,0.431,0.642,0.862,0.964,1.293l-0.101-0.066c0.354,0.695,0.708,1.389,1.062,2.084
		l-0.048-0.076c0.35,0.677,0.699,1.353,1.049,2.03c1,1.671,2,3.341,3,5.012c0.341,0.342,0.682,0.685,1.023,1.027l-0.097-0.069
		c0.375,1.027,0.749,2.055,1.124,3.082l-0.073-0.114c1.676,3.692,3.352,7.384,5.029,11.076c0.307,0.322,0.615,0.643,0.922,0.965
		c1.235,3.658,2.47,7.316,3.705,10.975C312.008,736.278,315.292,742.385,312.519,749.076z M327.572,752.029
		c-1.925,1.185-3.85,2.369-6.908,4.251c4.228-12.336,1.995-23.321-0.782-34.279l0.066,0.145
		c-8.982-24.559-24.507-47.526-42.48-66.424c-15.395-16.188-40.458-34.619-64.019-28.228c-0.391,0.082-0.782,0.164-1.173,0.247
		c0.198-0.289,0.396-0.578,0.593-0.867c43.016-54.604,117.838,10.022,129.796,58.625
		C352.264,712.149,349.463,732.839,327.572,752.029z M358.579,690.114c-4.649-10.988-9.115-21.546-13.582-32.103
		c-8.249-11.297-15.809-22.932-25.751-32.872c-8.202-8.201-18.865-12.644-27.164-20.123c13.462-19.494,30.156-39.263,55.388-28.083
		c9.428,4.178,17.553,10.548,23.395,19.088c3.925,5.737,13.98,21.789,10.132,27.98c8.43,4.75,2.163,27.352-0.638,34.172
		C375.437,670.157,366.641,680.166,358.579,690.114z M372.847,690.292c3.264-4.438,8.057-14.922,13.025-17.402
		c6.303-3.147,13.11,2.8,18.206,6.37c13.927,9.757,25.662,18.417,42.033,23.739C435.182,706.873,387.604,698.793,372.847,690.292z
		 M422.67,681.262c27.454,0,42.214-9.377,57.137-32.276c0.385-0.338,0.77-0.675,1.156-1.013l-0.006-0.026
		c2.93-10.344,6.233-20.291,6.536-31.164c0.24-8.618-4.704-20.096-3.4-28.157c11.868,7.776,29.01,33.621,25.791,57.315
		c0,17.97-14.814,37.704-30.82,45.206C459.458,700.336,439.745,691.415,422.67,681.262z M490.131,696.169
		c-0.974,0.318-1.949,0.636-2.923,0.955c-0.08-0.254-0.16-0.508-0.241-0.763c0.941-0.203,1.882-0.407,2.823-0.61
		c13.185-8.974,22.169-21.309,26.751-36.343c2.164-7.101,1.82-14.967,2.612-22.487c-1.635-24.714-14.636-43.436-31.89-60.459
		c13.994-1.11,28.273-1.667,41.88-6.112c13.877-4.534,26.915-12.568,39.807-19.256c8.805-6.45,17.61-12.9,26.995-19.776
		C595.945,596.836,561.542,681.656,490.131,696.169z M592.789,519.932c-5.424,6.464-14.058,11.816-20.516,17.171
		c-27.963,16.301-59.46,32.989-93.137,30.584c-6.993,0.372-16.214-9.152-21.527-13.047c16.841-8.756,32.812-17.043,46.337-30.688
		c6.198-6.253,12.033-13.156,17.055-20.395c5.008-7.218,8.006-14.911,18.07-15.484c0.68-0.051,1.359-0.102,2.039-0.153
		c0.184-0.062,0.365-0.053,0.543,0.026c0.556,0.001,1.112,0.002,1.668,0.004l0.473-0.045l0.113-0.123
		c0.652-0.635,1.303-1.271,1.955-1.906c7.694-4.582,15.391-9.163,23.087-13.744c6.853-6.674,13.706-13.348,21.03-20.48
		c2.795,17.112,5.098,34.011,6.269,51.33C596.723,510.047,597.388,514.451,592.789,519.932z"/>
	<path style="fill:#141C12;" d="M109.081,656.001c-0.005-0.01-0.01-0.019-0.015-0.029c-0.018-0.018-0.036-0.037-0.054-0.055
		L109.081,656.001z"/>
	<path style="fill:#141C12;" d="M454.999,368.058c0.016-0.018,0.031-0.035,0.047-0.053c0-0.001,0-0.003,0.001-0.004L454.999,368.058
		z"/>
	<path style="fill:#141C12;" d="M113.108,662.983c-0.001-0.002-0.002-0.003-0.002-0.005c-0.026-0.027-0.053-0.053-0.079-0.08
		L113.108,662.983z"/>
	<path style="fill:#141C12;" d="M307.118,718c-0.006-0.013-0.012-0.026-0.018-0.039c-0.024-0.025-0.048-0.05-0.071-0.075
		C307.029,717.886,307.118,718,307.118,718z"/>
	<path style="fill:#141C12;" d="M308.41,440.773c-0.071-0.063-0.142-0.125-0.213-0.188l-0.049,0.181L308.41,440.773z"/>
	<path style="fill:#141C12;" d="M281.902,755.083c0.016,0.008,0.033,0.016,0.049,0.024c0.012,0.004,0.024,0.008,0.035,0.012
		C281.986,755.119,281.902,755.083,281.902,755.083z"/>
	<path style="fill:#141C12;" d="M335.056,529.121c0.023-0.025,0.047-0.049,0.07-0.074c0.002-0.003,0.004-0.007,0.006-0.01
		L335.056,529.121z"/>
	<path style="fill:#141C12;" d="M300.107,702.977c-0.004-0.006-0.007-0.012-0.011-0.018c-0.02-0.02-0.04-0.041-0.061-0.061
		L300.107,702.977z"/>
	<path style="fill:#141C12;" d="M297.12,697.993c-0.008-0.016-0.016-0.031-0.024-0.047c-0.01-0.017-0.02-0.034-0.03-0.051
		L297.12,697.993z"/>
</g>
<g>
	<path style="fill:#E3D6B7;" d="M175.673,324.5c0-0.065-0.008-0.115-0.01-0.177c-0.005-0.003-0.01-0.005-0.014-0.008
		C175.649,324.316,175.673,324.502,175.673,324.5z"/>
	<path style="fill:#E3D6B7;" d="M178.993,326.044c-0.01-0.005-0.019-0.011-0.029-0.016c-0.008-0.003-0.017-0.005-0.025-0.008
		C178.939,326.02,178.993,326.044,178.993,326.044z"/>
	<path style="fill:#E3D6B7;" d="M171,322.012c-0.005-0.003-0.01-0.006-0.015-0.009c0,0-0.001,0-0.001,0
		C170.983,322.002,171,322.012,171,322.012z"/>
	<path style="fill:#E3D6B7;" d="M127.863,274.217c0.001-0.025,0-0.049,0.001-0.074c-0.042,0.003-0.075,0.001-0.119,0.005
		C127.745,274.149,127.863,274.218,127.863,274.217z"/>
	<path style="fill:#E3D6B7;" d="M167.861,320.266c-0.007-0.027-0.016-0.049-0.023-0.076c-0.026-0.015-0.053-0.03-0.079-0.045
		C167.76,320.145,167.861,320.267,167.861,320.266z"/>
	<path style="fill:#E3D6B7;" d="M139.745,295.32c0.001-0.011,0.003-0.023,0.004-0.034c-0.045-0.048-0.09-0.096-0.135-0.144
		C139.614,295.143,139.744,295.322,139.745,295.32z"/>
</g>
<path style="fill:#E3D6B7;" d="M411.55,237.506c-1.164-6.546-2.328-13.093-3.492-19.639c0,0,0.083,0.12,0.083,0.12
	c-1.684-4.861-3.369-9.722-5.053-14.583c-10.595-22.45-24.568-32.386-44.792-40.746c-0.007-0.004-0.014-0.008-0.021-0.011
	c-1.888-1.009-4.43-1.989-7.503-2.938c-1.119-0.418-2.249-0.836-3.403-1.255c-0.137,0.051-0.304,0.097-0.495,0.14
	c-34.496-9.139-118.12-15.11-153.191-15.312l0.007,0.001c-14.084-0.345-28.076,0.415-41.922,3.57c-0.001,0,0.177-0.15,0.177-0.15
	c-0.795,0.411-1.59,0.822-2.386,1.233c-3.022,1.937-6.354,3.521-9.011,5.868c-7.016,6.199-11.468,13.588-14.495,21.628l-0.001-0.044
	c-0.021,0.07-0.041,0.141-0.062,0.211c-2.456,6.574-3.966,13.581-5.118,20.742c-6.711,34.454-6.153,79.108,28.643,110.123
	c0.012,0.011,0.025,0.021,0.037,0.032l-0.034,0.006c0.674,0.659,1.348,1.317,2.02,1.978c-0.001,0.001,0.045-0.09,0.094-0.189
	c0.002,0.001,0.003,0.003,0.005,0.004l-0.087,0.185c1.448,1.242,2.895,2.483,4.343,3.725c0,0-0.103-0.103-0.103-0.103
	c0.743,0.62,1.485,1.239,2.228,1.859c0,0,0.02,0.018,0.02,0.018c0.245,0.044,0.492,0.087,0.738,0.129
	c39.536,30.323,79.62,31.49,103.998,34.03c0.015,0.002,0.029,0.002,0.044,0.004c15.921,2.372,32.314,3.336,47.972,3.581
	c20.517,0.321,40.776-1.252,59.021-11.456C404.929,320.629,417.673,275.47,411.55,237.506z M376.309,283.953
	c-6.82,30.349-31.641,41.235-55.262,41.893c-6.668,0.186-13.347-0.036-20.029-0.383c-1.096-0.097-2.324-0.166-3.7-0.202
	c-2.365-0.137-4.731-0.279-7.097-0.424c-30.46-2.555-104.253-15.447-104.447-15.481c-22.533-6.822-41.37-22.282-49.084-45.387
	c-4.039-12.096-5.546-25.508-5.638-38.216c0.784-7.006,1.563-13.707,3.199-19.811c1.068-3.287,2.347-6.504,3.765-9.733
	c9.72-17.969,34.736-27.284,108.137-16.75c107.522,15.431,124.869,18.074,133.086,83.696
	C378.883,269.297,380.429,279.323,376.309,283.953z"/>
</svg>
