<?xml version="1.0" encoding="utf-8"?>
<!-- Generator: Adobe Illustrator 28.4.1, SVG Export Plug-In . SVG Version: 6.00 Build 0)  -->
<svg version="1.1" id="Layer_1" xmlns="http://www.w3.org/2000/svg" xmlns:xlink="http://www.w3.org/1999/xlink" x="0px" y="0px"
	 viewBox="0 0 376 377" style="enable-background:new 0 0 376 377;" xml:space="preserve">
<style type="text/css">
	.st0{fill:#091407;}
	.st1{fill:#CEB481;}
	.st2{fill:#C6AE7B;}
	.st3{fill:#0B0E05;}
	.st4{fill:#1C2416;}
	.st5{fill:#202516;}
	.st6{fill:#F1E4BC;}
	.st7{fill:#5B5C45;}
	.st8{fill:#D1760F;}
	.st9{fill:#EFE2BA;}
	.st10{fill:#988D69;}
	.st11{fill:#5C5E48;}
	.st12{fill:#EFE1B5;}
	.st13{fill:#EFE0B6;}
	.st14{fill:#5D5E47;}
	.st15{fill:#111C10;}
	.st16{fill:#7E3E07;}
	.st17{fill:#545946;}
	.st18{fill:#5D5E48;}
	.st19{fill:#AB9E76;}
	.st20{fill:#363F2E;}
	.st21{fill:#5E6048;}
	.st22{fill:#EEE2B8;}
	.st23{fill:#5F614A;}
	.st24{fill:#585C46;}
	.st25{fill:#9D9572;}
	.st26{fill:#5C5E47;}
	.st27{fill:#373D2E;}
	.st28{fill:#36402F;}
	.st29{fill:#5C5D47;}
	.st30{fill:#39412E;}
	.st31{fill:#595C46;}
	.st32{fill:#3E4531;}
	.st33{fill:#575A47;}
	.st34{fill:#EDE1B9;}
	.st35{fill:#A49B76;}
	.st36{fill:#374231;}
	.st37{fill:#A9A079;}
	.st38{fill:#E8DDB5;}
	.st39{fill:#39422E;}
	.st40{fill:#595C48;}
	.st41{fill:#E5DCB9;}
	.st42{fill:#323B2A;}
	.st43{fill:#3C4533;}
	.st44{fill:#363E2C;}
	.st45{fill:#E6DDB5;}
	.st46{fill:#555943;}
	.st47{fill:#3A4430;}
	.st48{fill:#444B37;}
	.st49{fill:#989371;}
	.st50{fill:#333C2A;}
	.st51{fill:#9C9572;}
	.st52{fill:#4F5341;}
	.st53{fill:#2F3929;}
	.st54{fill:#5C5D46;}
	.st55{fill:#3C4433;}
	.st56{fill:#374230;}
	.st57{fill:#37412F;}
	.st58{fill:#394331;}
	.st59{fill:#3C4333;}
	.st60{fill:#565A44;}
	.st61{fill:#959271;}
	.st62{fill:#303A2B;}
	.st63{fill:#585C47;}
	.st64{fill:#3A4230;}
	.st65{fill:#9A9875;}
	.st66{fill:#2C3626;}
	.st67{fill:#333D29;}
	.st68{fill:#585D47;}
	.st69{fill:#A8A17E;}
	.st70{fill:#464B37;}
	.st71{fill:#E0D7B0;}
	.st72{fill:#DCD6B2;}
	.st73{fill:#C3B68F;}
	.st74{fill:#6D6D55;}
	.st75{fill:#3A4331;}
	.st76{fill:#253023;}
	.st77{fill:#E9E0BA;}
	.st78{fill:#5C604B;}
	.st79{fill:#61634B;}
	.st80{fill:#939173;}
	.st81{fill:#3A4836;}
	.st82{fill:#BAB99D;}
	.st83{fill:#364031;}
	.st84{fill:#4A4F3B;}
	.st85{fill:#C2BD9B;}
	.st86{fill:#505441;}
	.st87{fill:#4F5540;}
	.st88{fill:#333F2F;}
	.st89{fill:#232E1F;}
	.st90{fill:#D9DCCC;}
	.st91{fill:#555A44;}
	.st92{fill:#C4BE9E;}
	.st93{fill:#27311C;}
	.st94{fill:#1C2A1C;}
	.st95{fill:#475140;}
	.st96{fill:#353B2B;}
	.st97{fill:#404837;}
	.st98{fill:#2D3828;}
	.st99{fill:#C5C6A5;}
	.st100{fill:#343E30;}
	.st101{fill:#B2B59E;}
	.st102{fill:#343E2C;}
	.st103{fill:#535B49;}
	.st104{fill:#252F21;}
	.st105{fill:#727866;}
	.st106{fill:#504A30;}
	.st107{fill:#0A190A;}
	.st108{fill:#E1D8B6;}
	.st109{fill:#1A2113;}
</style>
<g>
	<g>
		<path class="st0" d="M185.1,291c2.2-0.8,4.4-1.6,7-2.5c-7-8.2-7.1-17.2-3.3-26.5c0.8-1.9-0.2-2.3-1.6-2.7
			c-7.2-1.7-14-4.2-20.3-8.1c-1.6-1-2.9-0.5-4.2,0.1c-5.3,2.6-10.4,5.5-10.8,12.4c0,0.8-0.4,1.7-0.9,2.3
			c-5.4,6.4-10.5,13.5-19.1,15.9c-8.7,2.5-16.2-0.6-23.1-6.2c-8.2-6.8-15.1-14.5-19.4-24.4c-0.1-0.3-0.3-0.6-0.4-0.9
			c-3.3-8.7-5.2-17.8,1.6-25.4c7.4-8.3,17.2-9.7,27.5-6.3c3.7,1.2,6.3,1,9.5-1.3c5.1-3.8,10.9-6.6,17.1-8.1c4-0.9,4.1-3,3.3-6.6
			c-10.4,5.4-21.5,4.4-32.4,3.9c-5.2-0.2-9.7-0.2-14.8,1.7c-8.5,3.3-18-5-17.8-14.8c0.1-3.7-0.1-5.9-4.7-6.5
			c-3.2-0.4-6.1-2.8-6.6-6.6c-0.5-3.7,1.3-6.4,4.1-8.5c0.4-0.3,0.8-0.6,1.2-0.8c12.7-6.4,26.1-8.5,40.2-7.2
			c4.3,0.4,8.2,2.2,11.1,5.2c2.5,2.5,4.8,2.3,7.7,1.3c4.8-1.6,9.2-3.7,14.6-7.5c-11.2-1.1-18.2-9-28.3-11.4
			c-7.9-1.9-16.3-6-21.5-13.8c-8-12.1-7.8-34.7,0.4-46.7c2.6-3.8,6.7-5.6,10.4-8.2c3.3-2.3,1.2-9,5.2-11.6
			c7.3-4.7,12.4-11.6,17.7-17.8c6.7-8,14.5-13.4,23.8-16.4c35.6-11.3,69.5-8.7,99.7,14.9c9.1,7.1,17.4,16.2,17.6,29.4
			c0,0.3,0,0.8,0.2,1c4.3,4.3,3.9,9.5,3,14.8c-1.7,0-3.4,0.4-5.1,0.9c-3.7-0.4-7.4-0.1-11.1-0.8c-1.1-0.2-2.3,0-3.4-0.5
			c-5.7-3.1-5.7-3.1-9.8,2.1c-5.1,5.6-7.2,12.6-8.6,19.8c-0.9,2.8-0.3,5.6-0.5,8.5c-0.1,4.4,0.7,8.8,1.6,13.1c0.4,2.1,0.5,4.2,1.7,6
			c1.3,2.3,2.7,4.6,5.2,5.8c0.4,0.2,0.8,0.5,1.2,0.7c2,1.3,4,1.2,6.6,0.2c-3-2.7-5.7-5.2-7.1-8.6c-0.8-1.9-1.3-3.8-1.8-5.8
			c-0.8-3.7-1.6-7.3-1.3-11.1c0-1.1-0.1-2.1,0-3.2c1.2-7.5,2.1-15.2,7.3-21.4c2.4-2.1,4-5.5,7.9-5.4c2.6,1.5,0.4,2.7-0.4,3.8
			c-2.1,2.9-4.8,5.4-5.5,9.2c-0.4,1.4-0.7,2.9-1,4.3c-2,6.8-1.4,13.6,0.1,20.4c0.8,4.5,2.5,8.6,6.3,11.5c0.9,0.7,2.1,1.5,3.2,0.6
			c1.2-0.9,0.4-2.1-0.1-3.1c-0.8-1.5-1.7-2.9-1.1-4.7c1.7-2.1,3.9-3.8,5.2-6.2c0.4-0.3,0.9-0.3,1.3-0.2c2.7,2.1,3.1,5.1,2.3,8
			c-2.1,7.1,0.5,12.5,5.4,17.3c6.1,7,13.3,10.5,22.6,6.4c2.4,0.2,1.8,2.1,2.1,3.5c-0.5,0.4-1.3,0.8-1.4,1.4
			c-1.2,8-8.3,11.6-12.7,17.2c-6.6,8.4-15.5,12.2-25.5,14.2c-2.6,0.5-3.7,1-3.1,4c5.2,26-1.4,48.3-21.6,65.9
			c6.3,7,13.7,12.7,16,22.2c2.8,6.6,0.9,12.5-2.8,17.9c-6.1,8.9-14.3,15.3-24.7,18.6c-13.1,4.1-26.2,4-39.3,0.2
			c-6-1.7-10.6-5.4-13.3-11.3c-2.9-7.7-1.9-14.8,2.8-21.5C178.9,293.9,181.5,291.8,185.1,291z"/>
		<path class="st1" d="M185.1,291c-5.5,4.3-10.2,9.1-11.2,16.4c-0.5,3.6,0,7,1.2,10.3c0.5,1.3-0.3,1.4-1.2,1.3
			c-2-0.3-3.7-1.5-5.7-1.8c1,0.5,2.1,1.1,2.8,2c1.2,1.6,3.2,3.1,2.3,5.2c-1.1,2.4-3.5,1.3-5.3,1c-7.9-1.6-15.5-0.5-22.9,2.6
			c-16.5-0.7-32.5-3.9-47.7-10.6c-3.4-1.5-7.8-3.1-7.7-7.6c0.1-4.3,4-6.2,7.6-7.8c11.8-5.2,24.5-7.2,37.2-8.7
			C151.2,291.4,168.1,290.3,185.1,291z"/>
		<path class="st2" d="M145,328c3.8-4.2,9-4.6,14-4.8c4.5-0.2,9,0.4,14.7,2.2c-2.9-4.1-3.4-8.9-9.3-6c1.7-2.4,2.5-5.3,6.4-2.8
			c1,0.7,2.6,1.8,4.3,1.2c4,7.6,10.8,11.1,18.8,12.4c17.9,3,34.7,0.9,48.9-11.9c7.6-6.8,12.6-14.6,11.3-25.2c1.3,2.3,3.8,2.5,6,2.9
			c7.5,1.4,14.9,3.4,21.9,6.7c3,1.4,6.4,3.2,6.6,6.8c0.2,3.8-3.3,5.3-6.3,7c-4,2.2-8.6,2.7-12.6,4.7c-20,10.4-41.6,12.3-63.5,12.4
			c-12.4,0-24.8-1.5-37.1-3.4c-6-0.9-12.2-0.9-18.3-1.2C148.8,328.9,146.8,329.2,145,328z"/>
		<path class="st3" d="M302.3,168.1c-1.4-0.7-0.6-2.4-1.4-3.4c0.3-6.9,5.2-8.7,10.8-9.7c1.8-0.5,3.5-1,4.9-2.4c1.1-1.1,2-2.4,1.3-4
			c-0.7-1.6-2.2-2-3.7-1.9c-2.5,0.2-4.9,1-7.4,1.2c-1.5,0.1-3.2,0.2-4-1.4c-0.8-1.7,0.5-2.8,1.6-3.8c2.8-2.6,6.1-4.6,8.7-7.5
			c1.6-1.8,3.4-3.8,1.6-6.1c-1.9-2.5-4.2-0.9-6.2,0.2c-3,1.6-5.3,4-7.9,6c-1.3,1-3,2.6-4.4,1.3c-1.8-1.6,0.1-3.3,1-4.8
			c1.1-1.9,2.9-3.2,4.2-4.9c1.2-1.6,2.7-3.4,0.9-5.3c-1.9-2-4-0.8-5.8,0.5c-2.4,1.8-4.4,4.1-6.5,6.2c-3,3.1-4.7,5.8-1.3,10.2
			c2.4,3.2,3.6,7.6,0.3,11.5c-0.8,0.1-1.4-0.3-1.8-1c-0.5-7.6-6.7-12.7-8.9-19.7c-0.6-1.9-2.6-3-4.9-2.8c-2.3,0.3-2.8,2.1-3.2,3.9
			c-0.2,0.8-0.4,1.6-1.1,2.2l-0.2,0.2c-3.9-3.4-2.8-9.4,2.1-11c4.7-1.6,8.7-0.2,11.8,3.6c0.9-0.6-0.5,3.5,1.5,0.7
			c0.3-4,0.6-7.9-0.3-11.8c-0.4-1.6-0.9-3.2-1.4-4.7c-0.9-3.8-2.8-6.9-5.7-9.4c-1-0.8-2.1-1.6-2-3.1c1.2-2.1,2.6-1.9,4-0.2
			c8.2,6.7,8.8,16.1,9.3,26.3c2.6-2.1,4.7-4.1,7.1-5.6c5.7-3.6,10.7-1.8,12.6,4.6c0.4,1.5,0.7,1.9,2.2,1.5c4.2-0.9,7.8,0,9.6,4.1
			c1.9,4.3-0.3,7.7-3.1,10.8c-0.8,1-2.3,1.5-2.5,3.1c1.3,0.3,2.6,0.5,3.8,0.9c5,1.6,6.8,7.4,3.6,11.7c-1.5,2.1-3.6,3.8-6,4.2
			C309.3,159.5,305.5,163.3,302.3,168.1z"/>
		<path class="st4" d="M96.8,54.4c1.9,0.6,5.1-1.2,6.5,1.3c2,3.7,3.6,7.8,3.8,12.2c0.1,1.7-1,2.8-2.7,3.1c-1.7,0.3-3.4,0.1-4.3-1.7
			c-0.9-1.7-0.8-3.5,0.8-4.4c1.9-1.2,3.6-2.5,1.6-4.4c-2-1.8-5-1.1-7.6-0.7C94,60,94.6,61.3,94.8,62c0.5,2.1,1.2,4.2,1.6,6.3
			c0.7,3.2-0.6,5.5-3.3,7.1c-2.2,1.3-4.8,2.4-6.7-0.2c-2-2.8-0.4-5.8,2.1-6.6c4.9-1.6,4.3-4.2,2.9-8C89.1,54.2,89.3,54.2,96.8,54.4z
			"/>
		<path class="st5" d="M307.3,86c-0.1-2.6,1.8-5.1-2.2-6.5c-1,2.6-2.1,5.1-3,7.7c-1.1,3-3.1,4.6-6.3,4.7c-2.6,0-5.4-0.4-5.6-3.5
			c-0.2-3,2.5-4.9,4.9-4.4c6,1.2,6.4-3.1,7.9-6.8c0.6-1.6,0.9-4.7,2.4-4.5c2.8,0.3,4.5,3.1,6.4,5.1c1.6,1.7,0.1,3.5-1,4.9
			C309.8,83.9,308.5,84.9,307.3,86z"/>
		<path class="st6" d="M151.3,86.8c14.9,1.4,31.8,2.6,48.6,5.2c5.8,0.9,11.1,3,15.9,6.7c6.7,5.3,9.4,11.9,7.8,20.2
			c-0.9,4.6-1.3,9.2-0.9,13.9c1.3,14.7-6.1,25.1-20.5,28.5c-14.6,3.4-29.1,0.9-43.6-1.5c-9.1-1.5-18-3.8-25.4-9.7
			c-13.3-10.7-15.8-25.3-13.6-41C122.1,91.8,131.2,85.2,151.3,86.8z"/>
		<path class="st7" d="M240.9,87c-7.4,3.2-10.4,10.2-14.4,17.1c-4.3-6.5-9.9-10.9-16.6-13.9c0.1-5.6,0.1-5.6-5.2-4.7
			c-1,0.2-2.1,0.5-2.9,0c-4.6-3.3-9.6-1.6-14.5-1.5c-5.2,0-10.1-0.5-12.3-6.3c-0.5-1.3-1.3-1.1-2.3-1.1c-4.8,0.1-7.8-2.8-7.4-7.5
			c0.2-3.1,1.2-6.2,2-9.2c0.6-2.1,2.2-3.4,4.2-3.9c3.7-0.8,7.6-2.1,11.3-1.6c5.6,0.8,10.1-0.7,14.3-4.2c13.2,0.9,24.8,5.5,35.1,13.8
			c5.4,4.1,8.6,9.6,10.5,16C243.3,82.5,244,85.2,240.9,87z"/>
		<path class="st8" d="M228.2,175c-0.5,6.1,0.3,11.9,3.7,17.2c1.6,2.5,1.9,5.3-1.7,6.4c-21.5,7.3-43.1,11.4-65.1,1.8
			c-0.6-0.3-1.2-0.5-1.8-0.8c-8.8-4.3-9.1-5-7.1-14.4c0.8-3.8,1.9-7.6,2.9-11.3c1.8-1,3.2,0.2,4.6,1c14.7,8.9,30,9.9,46,4.1
			c5.2-1.9,10.2-4.1,15.1-6.5C227.3,171.2,229.1,171.4,228.2,175z"/>
		<path class="st9" d="M269.1,132.9c-0.3-3.1-0.9-6.7,3-7.7c4.2-1.1,7.2,1.3,8.3,5.1c1.1,3.8,2.8,7,5.6,9.9c2,2.1,2,5.5,1.7,8.5
			c-0.3,0.9,0,1.9,0,2.8c0.3-0.6,0.6-1.1,1.1-1.6c1.3-5.4,0.8-10.2-3.9-13.9c-1.2-0.9-1.3-1.7-0.4-2.9c3.5-4.4,6.8-9.1,11.4-12.5
			c2.5-1.9,5.4-3.2,8-0.4c2.5,2.8,0.4,5.3-1.3,7.5c-2.1,2.8-5.2,4.9-7.5,9.3c4.8-2.2,7.2-5.4,10.4-7.5c3.3-2.2,7-5.7,10.5-1.5
			c3.5,4.2-0.6,7.2-3.6,9.8c-2.3,2.1-4.8,4-7.3,6c-0.7,0.6-2,1.1-1.6,2.3c0.5,1.5,2,0.8,3,0.7c2.1-0.4,4.2-1,6.3-1.5
			c3.1-0.7,5.9-0.4,6.9,3c1,3.1-1.2,5-3.7,6.3c-1.3,0.7-2.8,0.9-4.2,1.4c-4.2,0.3-7.6,1.8-11.1,4.5c-7.3,5.8-14.4,5.1-24-1.5
			c-5.7-5-8.5-10.7-5.6-18.5C272.1,138.2,271.4,135,269.1,132.9z"/>
		<path class="st10" d="M115.3,236.2l-0.2,0.2c9.3,9.6,14,21.3,14.9,34.5c-1.3,6.2-5.1,8.9-10.1,6.4c-15.8-7.9-26-20.5-29.3-38
			c-1.7-9.1,4.9-14.3,13.6-11.5C108.2,230.2,111.8,233.1,115.3,236.2z"/>
		<path class="st7" d="M197,50.2c-1.6,4.4-5.2,6.4-9.4,5.7c-4.5-0.8-8.6,0.6-12.9,0.7c-3.8,0-7.2,1.4-6.8,6.5
			c0.2,2.9-2.6,5.3-1.2,8.6c1.7,3.6,3.5,5.8,7.4,2.7c0.6-0.5,1.2-1.2,2.2-0.7c-0.5,6.6,4.1,9.7,10.9,8.9c4.5-0.5,9.8-3,14,1.3
			c1.4,1.4,2.5,0.5,4-0.2c2.1-1,4.7-1.5,6.3,0.9c1.5,2.2,0.1,4.1-1.6,5.6c-20.4-4.6-41.2-6.2-62.1-7.3c-6.8-0.4-13.6,0.2-20.5,4.7
			c2.1-6.6,6.2-10.6,9.7-14.8c12.5-14.7,28.4-22.6,47.8-23C188.8,49.9,192.9,50.1,197,50.2z"/>
		<path class="st11" d="M180,235c0-1,0-2-0.1-3c-0.5-7.7-0.5-7.5,7.5-6.2c19.4,3.1,38.6,3,57.5-3c1.6-0.2,2.1,1,2.1,2.1
			c-0.3,4.5-0.7,9.1-4.9,12c-6-1.9-12-3.6-18.4-3.1c-8.8,0.7-16.2,4.2-22.6,10.1C193,247.3,184,243.5,180,235z"/>
		<path class="st12" d="M182.9,298.8c6.9-7.5,15.2-7,23.8-3.8c6.7,2.5,12.5,6.4,15.7,13c0.8,1.7,2.8,3.7,0.4,5.8
			c-0.3,0.5-0.7,0.9-1.2,1.2c-9.2,4-18.5,4.7-28.1,1.8c-3.2-1-6-2.8-8.4-5.2C180.8,307.4,180.3,304.5,182.9,298.8z"/>
		<path class="st13" d="M105.1,193c-6.8-4.6-2-9.4-0.2-14.5c-2.8,5.7-7.6,0.7-11.3,2.6c-4.1,2.1-8.9,2.7-13.6,2.2
			c-1.7-0.2-3.3-0.9-3.9-2.6c-0.8-1.9,0-3.5,1.3-5c1.5-1.7,3.3-2.7,5.3-3.6c6.6-2.9,13.6-4.6,20.8-4.6c7.1,0,13.4,2.2,16.7,9.4
			c0.1,9.1-6.2,16.8-13.7,16.6C105.9,193.5,105.5,193.3,105.1,193z"/>
		<path class="st14" d="M206,224c-8.8,0-17.6-0.8-26-3.8c-5.2-1.9-9-5.4-11.1-10.6c-0.9-2.2-1.2-4,2.4-2.8c14,4.5,28.2,3.8,42.3,0.6
			c4.3-1,5.6,0.3,5.4,4.7C218.5,223.6,218.1,224.1,206,224z"/>
		<path class="st15" d="M283,127c-2.5-1.3-4.1-4.1-7.1-4.3c-7.1-0.7-9.6,3-7,10.4c0.1,3.5-1.9,5.2-5,6c-3.2-0.3-2.9-3.4-4.1-5.3
			c-2.5-9.1-0.5-17.7,3.5-25.9c2-4.3,5.6-7.4,10.7-6.6c4.8,0.7,7.8,4.1,9,8.8c0.2,0.8,0.6,1.5,0.8,2.3c0.8,3.4,0.4,6.9,1,10.4
			C285.1,124.4,284.7,126,283,127z"/>
		<path class="st16" d="M228.2,175c-0.1-2.8-1.2-2.1-3-1.2c-8,4.1-16.1,7.8-25.1,9.3c-14.2,2.4-27.4,0.1-39.2-8.6
			c-0.5-0.4-1.2-0.5-1.8-0.7c1.5-2.5,0.1-6.9,4.2-7.7c4-0.8,4.6,3.2,6.4,5.3c4.4,5,10.1,7,16.3,7.4c14.5,0.7,27.5-3.4,38.6-13
			c4-3.4,8.6-6.1,14.5-5.6C232.6,163.1,229.6,168.5,228.2,175z"/>
		<path class="st17" d="M251.9,62c-2.4,0.7-3.7-1-5.1-2.4c-14.7-14.6-32.4-21.2-53-21.8c-19.7-0.5-37.4,4.4-53.1,16.5
			c-0.6-3.4-0.7-3.6,2.4-6c9.2-7.2,20-11.1,31.4-13.3c2.8-0.5,5.6-0.7,8.4-1.1c9.8-1.1,19.5-0.4,29.1,1.3c13.3,2.3,25,8.2,35.6,16.5
			c2.4,1.9,4.3,4.1,5.9,6.7C254.8,60.4,254,61.5,251.9,62z"/>
		<path class="st18" d="M224.1,270.9c-7.5-8.6-16.8-12.6-28.2-11.4c0.9-7.3,8.2-12.3,16.7-11.3c7.9,0.9,14.6,4.2,19.4,10.8
			C232.3,264.7,229.1,269.5,224.1,270.9z"/>
		<path class="st19" d="M182.9,298.8c-1.1,10.2,6.1,17.4,17.7,18.2c7.4,0.5,14.5-0.6,21.4-3.1c3.2,3.7,1.2,6.8-1,10
			c-12.7,3.3-25.3,4.4-36.6-4.2C176.6,313.8,176.2,306.2,182.9,298.8z"/>
		<path class="st11" d="M244.9,218.8c-6.8,2.7-13.9,3.9-21.2,4.9c-3.2,0.4-4.1-0.8-3.6-3.9c2.5-15,3-15.5,17.8-19.7
			C244.3,203.6,247.7,212.9,244.9,218.8z"/>
		<path class="st20" d="M152,50.1c2.8-3.8,7.3-4.5,11.2-5.9c25.2-8.8,49.2-5.9,71.8,8.1c3.3,2.1,6.1,5.1,9.2,7.6
			c1.7,1.4,1.1,2.4-0.2,3.6c-1.4,1.3-2.1,0.8-3.2-0.5c-7.6-8.9-18.2-13.3-28.9-16.6c-7.6-2.4-15.8-2.3-23.9-2.7
			c-10.2-0.5-19.5,1.9-28.7,5.9C157.1,50.7,154.6,52,152,50.1L152,50.1z"/>
		<path class="st21" d="M197.9,278c-6.2-4.8-8.3-8.6-6.3-12.1c3.1-5.3,8.1-4,12.8-3.1c7.2,1.4,13.4,4.5,17.4,11
			c-3.2,6.3-12.5,9.2-20.1,6.2C200.4,279.6,199.3,278.7,197.9,278z"/>
		<path class="st22" d="M132.2,254.8c-2.9-6.7-6-13.2-10.6-19.1c-5.3-6.8-11.7-11.6-20.9-12.9c9.9-4.3,20.6-1.7,28.3,6.8
			c3.8,4.2,7.1,8.7,9.3,14c0.7,3.3,1.5,6.6-1.3,9.4C135.7,254.4,134.3,255.6,132.2,254.8z"/>
		<path class="st23" d="M234,256c-7.5-8.1-16.6-12-28.1-9.8c5.9-8.8,22-11.6,33.1-6.2c3.2,1.9,3.3,4.8,2.2,7.8
			C239.8,251.3,239.1,255.7,234,256z"/>
		<path class="st24" d="M282.8,112.2c-0.6-1.5-1-3.2-1.8-4.5c-4.7-7.4-12-7.4-16.3,0.4c-4.4,8-5.6,16.8-3.6,25.8
			c-1.4,4.1-4,3.8-7.1,2c-2.2-7.3-2.9-14.7-0.1-22c1.9,1.2,0.9,3.8,2.7,5.5c2.4-2.3,2.9-5.3,2.5-8.1c-0.3-2.4-3-0.2-4.2-1.4
			c0.3-4.3,3.5-7,6-10c0.5-0.6,2.2-0.8,0.9-2.1c-0.4-0.5-0.4-1,0.1-1.5c4.4,0,8.8-0.9,13.1,1c4.5,2.8,7.8,6.5,9,11.8
			C283,110,284.1,111.5,282.8,112.2z"/>
		<path class="st25" d="M221,323.9c-0.6-3.4,2.9-6.4,1-10c0.3-0.1,0.6-0.1,0.8,0c0.2,1.1,0.9,1.4,1.8,0.8c8.5-5,16.2-10.8,19.8-20.6
			c1.2-3.2,0.4-6.5,1.2-9.7c0,0,0.3-0.1,0.4,0c0.3,0.2,0.5,0.4,0.7,0.6c0.2,1.7-0.1,3.6,1.3,5c0.3,0.3,0.4,0.9,0.4,1.4
			c0.2-0.5,0.1-1.1,0.6-1.5c2,4.4,1.4,8.8-0.6,12.9C242.6,314,232.7,320.2,221,323.9z"/>
		<path class="st26" d="M146,242c-5-6.6-9.6-13.6-16.9-18c-2-1.2-1.6-2,0.1-3.1c2.5-1.6,5-2.3,8-1.4c7.7,2.4,13.5,7,16.8,14.4
			C154.6,239.7,150.4,243.9,146,242z"/>
		<path class="st27" d="M251.9,62c0.9-0.9,1.8-1.6,0.4-3.1c-9.1-10.4-20.7-16.7-33.6-20.7c-11.6-3.6-23.7-4.4-35.8-4.1
			c9.4-1.9,18.8-1.2,28,0.2c16.1,2.5,31.1,7.8,44.1,18c2.7,2.1,5.1,4.7,7.5,7.2c1.6,1.7,1,2.6-1.2,2.6C258.3,62,255.1,62,251.9,62z"
			/>
		<path class="st28" d="M190.8,277.8c6.3,5.4,12.2,8.6,19.8,8.4c5.9-0.2,10.9-2.2,15.8-5.1c1.3-0.8,2.6-2.9,4.2-1.1
			c1.1,1.3,1.1,3.2,0.3,5.1c-2.7,6.4-9.3,9-17.5,8.7C203.3,293.3,195.2,289.1,190.8,277.8z"/>
		<path class="st29" d="M157.1,232.9c-3.4-8.7-10.5-13.1-18.8-16.3c11.7-8.8,22.9-4.6,27.9,10.3C164.5,231,161.1,232.4,157.1,232.9z
			"/>
		<path class="st30" d="M180,235c1.5,1.3,3.1,2.5,4.3,3.9c4.5,5.2,10.5,5.3,16.7,5.1c-2.1,2.8-4.3,5.4-6.2,8.4
			c-2.4,3.7-5.9,1.7-8.6,1.3c-3.7-0.6-7.2-2.4-10.6-4c-2.4-1.1-3.8-3.2-1.1-5.4C177.4,241.7,178.6,238.3,180,235z"/>
		<path class="st31" d="M263,190c-9.7-7.3-10.5-22-2.1-26.4c1.7,7.2,7,11.8,12.2,16.3c1.7,1.4,1.3,3-0.1,4.2
			C270,186.6,267.2,189.5,263,190z"/>
		<path class="st32" d="M242,236.9c1.2-3.4,2.4-6.7,3.5-10.1c0.5-1.5,0.7-2.9-0.7-4c3.5-2.1,7-4.1,10.8-6.4
			c0.9,9.1,0.2,17.5-2.9,25.7c-0.9,2.4-1.9,2.9-3.6,0.7C247.3,240.2,244.3,239,242,236.9z"/>
		<path class="st33" d="M234,185c-5.4-9.1,0.9-21.7,11-21.9c1.7,0,3.7,0.1,4.5,1.5c0.9,1.7-1.1,2.6-2.2,3.4
			c-6.7,5.2-6.8,12.5-6.4,19.9C237.3,190,235.7,187.3,234,185z"/>
		<path class="st34" d="M239.8,117.8c1.3-7.4,3.2-14.7,9.1-20c3.1,0.6,6.1,1.3,6.2,5.4c-4.4,6.3-6.1,13.5-7.1,20.9
			c-2.3,1.9-5,2.2-7.2,0.6C238.4,122.9,239.5,120.2,239.8,117.8z"/>
		<path class="st35" d="M132.2,254.8c5.3-1.9,6.2-6.2,6-11.1c3.4,6.6,5.5,13.4,4.2,20.9c-1,5.6-4,9.6-9.9,12.4
			C135.7,269.1,133.7,262,132.2,254.8z"/>
		<path class="st36" d="M171.9,167.5c14.8,2.4,29,1.9,43.1-0.1C209.7,174.7,179.4,180,171.9,167.5z"/>
		<path class="st37" d="M255,65.2c1.6,0,3.3-0.2,4.9-0.1c8.2,0.3,12,4.1,13,12.3c0.3,2.5-0.2,3.8-3.1,3.3c-2.9-0.4-5.9-0.5-8.9-0.7
			C258.7,75.1,255.2,70.8,255,65.2z"/>
		<path class="st38" d="M274.9,175c-5-2.8-8.3-7-10.3-12.3c-1.5-3.9-1.4-7.7,2.7-10.9c2.6,7.9,8.1,12.9,14.5,17.2
			C282.6,174.2,280.5,176,274.9,175z"/>
		<path class="st39" d="M244.9,218.8c0.7-7.3-2.7-13.2-6.9-18.7c0.8-1.3,1.9-1.2,3-0.4c2,1.5,4.4,1.5,6.6,2.2
			c2.5,0.8,6.2-1.6,7.4,2.9c1.4,5.1,0.4,9-4.8,11.3C248.4,217,246.6,217.9,244.9,218.8z"/>
		<path class="st40" d="M245.1,189.9c-3.3-9.1-0.9-16.7,7.9-22c-2.7,8.2,0.2,14.7,4,21c1.1,2.8-1.1,3-2.8,3.4
			C250.8,193,247.7,192.3,245.1,189.9z"/>
		<path class="st41" d="M100.1,119c-1-7.9,0.2-15.6,3.3-22.8c1.9-4.6,4.4-8.8,10.6-10.4c-5.6,9.4-8.1,18.9-8.1,29.1
			C105.1,120.6,104.8,120.8,100.1,119z"/>
		<path class="st42" d="M242,285.1c0.1,3.3-1.1,6.2-2.6,9c-2.8,5.3-3.8,5.3-8.4,1.9c-2.1-1.6-1.9-2.7-0.4-4.4
			c3.4-3.9,4.4-8.4,3-13.4c-0.9-3.3,1.1-3,3-2.2C240.5,277.7,242.2,280.9,242,285.1z"/>
		<path class="st43" d="M234,256c5.9-4.8,7.7-10.4,5-16c4.2,0.6,6.3,4,9,6.6c1.4,1.4,1.2,3,0.3,4.6c-1,1.5-2,3-3.1,4.5
			c-1.9,2.5-3.7,6.5-6,6.9C236.2,263,236.3,257.9,234,256z"/>
		<path class="st44" d="M263,190c2.6-1.8,5.2-3.5,7.6-5.4c1.5-1.1,3.5-2.2,2.5-4.7c1.5,0.6,3,1.3,4.6,1.8c2,0.7,5.2,0.3,5.6,2.2
			c0.5,2.5-2.5,4.1-4.3,5.5C272.4,194.1,269.7,195.9,263,190z"/>
		<path class="st45" d="M125,187.9c1.8-8.5-0.7-15.4-8.6-20.6c12.6,1.9,19.1,14.3,13.5,24.6C126.7,192.6,124.5,192,125,187.9z"/>
		<path class="st46" d="M146.1,188.9c-0.6-4.4-2.1-8.3-5.1-11.7c-1-1.1-3.7-2.1-2.3-3.6c1.4-1.4,3.8-2.6,6.3-2
			c4.8,1.2,8.3,7.4,6.9,12.3C150.4,186,150.3,189.9,146.1,188.9z"/>
		<path class="st47" d="M157.1,232.9c3-2,6-4,9-6c1.8,6.6,1.7,13-3.1,18.5c-0.8,1-1.9,2.2-3.3,1.7c-1.3-0.5-0.7-2-0.6-3.1
			C159.2,240.1,158.4,236.5,157.1,232.9z"/>
		<path class="st48" d="M241.1,101.1c-0.5,3.1-2.7,1.3-4.2,1.5c-0.5,1.2,4.5,2.4-0.1,3.5c-1.5,0.3-0.6,0.6-0.3,1.4
			c2.1,4.6,0.3,7.6-4.7,8.7c-2.2,0.5,0.3,1.1,0.3,1.8c-1.3,1.3-2.6,1.2-4,0.1c0.2-6.6,2.6-12.5,5.8-18.1
			C237.9,96.9,239.1,97.1,241.1,101.1z"/>
		<path class="st49" d="M276.9,159.1c0.9,0.3,2,0.4,2.8,0.8c7.9,4.7,15.4,4,22.4-1.8c3-2.5,6.4-2.2,9.9-2c-5.3,0.9-9.1,3.7-11.2,8.7
			C293.2,170.2,283.2,167.8,276.9,159.1z"/>
		<path class="st50" d="M240.9,87c1.4-2,1.1-4,0.5-6.2c-1.9-6.3-5.1-11.8-9.3-16.8c6.3,5.1,13.5,9.2,17.2,17c2.1,4.2,1.8,4.8-3,5.1
			C244.5,86.2,242.7,86.7,240.9,87z"/>
		<path class="st51" d="M274.9,175c3.9-0.1,6.3-2.1,7-5.9c4,1.1,7.6,3.3,12,3c2.2-0.2,1.9,1.2,1.2,2.5c-1.4,2.7-3.7,4.2-6.8,4.4
			C283.3,179.4,278.7,178.6,274.9,175z"/>
		<path class="st52" d="M100.1,119c3.3,0.6,5.8-0.1,5.8-4.1c0,9.2,2.4,17.9,6.4,27.2C103.4,136,100.6,128.1,100.1,119z"/>
		<path class="st53" d="M254,136c2.6,0,5.2,0.2,7.1-2c1.4,1.4,1,3.8,2.8,5c-0.1,2,1,3.4,2.2,4.8c1.2,1.4,1.3,3.2,0.2,4.6
			c-1.3,1.7-2.9,0.9-4.5,0.1C256.9,145.8,254.9,141.3,254,136z"/>
		<path class="st54" d="M247.9,126.9c0.4,4,0.8,8.1,1.2,12.1c-2.4,1.7-5.1,2.3-8,2c-1.8-4.5-2.3-9.2-2-14
			C241.9,125,244.9,124.9,247.9,126.9z"/>
		<path class="st55" d="M143,191c0,9.6-0.8,10.2-15,11.4c3.5-4.6,6.1-9.2,7-14.5C136.8,191.1,140.3,190,143,191z"/>
		<path class="st56" d="M146,242c5-0.4,7-3.8,8.1-8c2.8,5.6,3.1,11.3,0.3,17c-0.6,1.1-1.6,2.5-3,2.4c-1.4-0.1-1.2-1.7-1.7-2.8
			C148.5,247.7,147.3,244.8,146,242z"/>
		<path class="st57" d="M212.2,161.9c6.4-4.3,10.7-8.7,13.1-14.6c2.4,0.8,1.8,2.9,2.6,4.2c3.3,5.3,3.3,5.6-2.8,7.7
			C221.5,160.5,217.8,162.2,212.2,161.9z"/>
		<path class="st58" d="M175,223.9c3.5,8.2,1.1,16-7.3,20.9c1.4-6.4,3.4-12.6,1.4-18.9C170.8,224.3,173.3,225.2,175,223.9z"/>
		<path class="st59" d="M272.6,91.1c-2.7-0.5-5.4-1-8.2-1c-3.4,0-3.1-3.8-3.6-5.6c-0.5-2.3,2.4-1.3,3.8-1.3c2.8,0.1,5.6,0.4,8.3,0.9
			c2.6,0.5,3.9,2.6,3.9,5C276.8,92.1,274.2,90.6,272.6,91.1z"/>
		<path class="st60" d="M143,191c-6.1,2.1-7.3,1.6-8-3c0-4.1,0.6-8.2-2-12.3C139.8,178.2,142.9,183.2,143,191z"/>
		<path class="st61" d="M125,187.9c0,3.4,3.2,2.8,5,4c-2.2,8.1-10.8,12.7-18.9,9.4C118.8,199.7,122.5,194.4,125,187.9z"/>
		<path class="st62" d="M235,119c0,3.4,0.1,6.7-0.1,10.1c-0.2,3.1-2.6,2.9-4.8,2.9c-2.4,0.1-3.3-1.2-3.1-3.4
			c0.3-3.2-0.8-6.6,0.8-9.7C230.2,119.1,232.6,119,235,119z"/>
		<path class="st63" d="M166.4,210c-4-0.8-7.2-2.2-10.8-2c-1.9,0.1-2.7-0.9-2.6-2.8c0.1-2.1,0.2-4.3,0.4-8.1
			C157.4,202.8,165.9,201.2,166.4,210z"/>
		<path class="st64" d="M245.1,189.9c2.9,0.5,5.6,1.4,8.6,1.1c1.5-0.2,3-0.1,3.3-2.1c1.7,2.9,4.7,4.3,7.5,6.2
			C256.6,199.7,248.7,197.4,245.1,189.9z"/>
		<path class="st65" d="M87.7,195.8c5.3,3.9,9.7,3.7,14.3,2c1-0.4,2.2-1.4,3.1,0c0.8,1.2,0.3,2.6-0.3,3.8c-1.7,3.4-7.5,4.5-11.6,2.3
			C90.5,202.5,89,200.3,87.7,195.8z"/>
		<path class="st66" d="M115.9,109c-0.4,3.6-1.2,7.1-0.9,10.8c0.1,1.8-0.3,3.3-2.6,3.2c-1.9-0.1-3.2-0.9-3.3-2.9
			c-0.1-4-0.1-8.1-0.2-12.1C111.4,107.4,113.8,107.2,115.9,109z"/>
		<path class="st67" d="M197.9,278c8.8,3.6,16.8,2.4,23.9-4.1c2.3,1.9,2.3,3.7,0,5.6C215.9,284.7,203.5,283.9,197.9,278z"/>
		<path class="st68" d="M175,223.9c-0.5,5-4.2,0.6-5.9,2c-0.9-2.7-1.9-5.3-3.7-7.5c-1.8-2.1-3.7-4-6.2-6.8
			C166.9,213.7,172.4,217,175,223.9z"/>
		<path class="st69" d="M255,103.1c-1.1-2.9-4.5-3.1-6.2-5.4c1-3.4,4.1-4.4,6.8-5.8c1.5-0.8,2.4-0.3,2.7,1.5
			c0.3,1.8,1.4,2.9,3.4,2.8c0,0.5,0,1-0.1,1.5C258.9,98.8,257.2,101.3,255,103.1z"/>
		<path class="st70" d="M114.1,99.6c-1,0.3-2.3,0.9-2.7-0.3c-1-3.3,1.5-5.9,2.4-8.8c0.5-1.7,1.9-2.8,3.8-2.4
			c2.3,0.5,4.4,1.5,2.9,4.3c-1,2-2.5,3.7-2.7,6.2C117.6,100.9,115.2,98.7,114.1,99.6z"/>
		<path class="st71" d="M254.9,109.9c1.8-0.3,3-3.2,5.2-1.5c2,1.6,0.8,3.9,0.4,5.9c0,0.2-0.1,0.3-0.1,0.5c-1.1,2.5,0,7.1-4.2,6.5
			c-4.4-0.6-1.4-4.9-2.2-7.4C254.4,112.7,253.4,111,254.9,109.9z"/>
		<path class="st72" d="M128,70.2c-3.1-0.8-3.7-2.2-1.3-4.6c2.5-2.5,4.8-5,7.1-7.7c2.4-3,3.3-0.8,4.3,1.1
			C138,63.6,132.6,69.6,128,70.2z"/>
		<path class="st73" d="M98,196.8c-7.9,0.3-10.9-2.1-10.9-8.8c1.1-0.3,2.3-0.3,3.4-0.5c5.7-1,9.4,2.9,8.3,8.8
			C98.8,196.6,98.3,196.7,98,196.8z"/>
		<path class="st74" d="M249,153c-3.4-0.6-4.5-3.5-6.1-6c1.5-4.1,4.2-4.9,8-3c2.8,4.9,4.1,6.2,9.4,8.9
			C256.2,154.8,252.7,157,249,153c0.7-1.2,2.3-2.3,0.6-4C247.9,150.3,250,151.9,249,153z"/>
		<path class="st75" d="M224.1,270.9c3.6-3.3,7.1-6.7,7.9-11.8c4.2,7.5,4,7.3-1.3,13C227.3,275.6,225.7,274.5,224.1,270.9z"/>
		<path class="st76" d="M125.7,148.9c-6.8-0.6-9.4-4.9-11.5-9.7c-0.5-1.1-1.8-2.6,0.5-3.1c1.4-0.3,3.4-1.6,4.3,0.8
			C120.4,141.2,123.4,144.5,125.7,148.9z"/>
		<path class="st77" d="M255,65.2c2.1,4.9,5.6,9.2,6,14.8c-1,0.3-2,0.6-3,0.9c-3.4-4-6.5-8.3-7-13.8C252.2,66.2,253.2,64.9,255,65.2
			z"/>
		<path class="st78" d="M128,70.2c4-3.1,7.4-6.9,10.1-11.2c3.9,2.7,3.1,5.2-0.3,7.7c-0.9,0.7-1.8,1.6-2.3,2.6
			C133.3,73.1,130.9,73.6,128,70.2z"/>
		<path class="st79" d="M251,67.1c2.2,4.7,5.4,8.8,7,13.8c-1,1.6-2,2.9-3.4,0.4c-2-3.4-4-6.7-5.8-10.2
			C247.5,68.9,249.7,68.1,251,67.1z"/>
		<path class="st80" d="M98,196.8c-0.4-6.7-2-8.3-7.6-8c-1.1,0.1-2.2-0.5-3.3-0.8c2.5-2.9,6-2.7,9.4-3c1.5-0.1,2.5,0.5,2.3,2.3
			c-0.3,2.7,0.4,4.9,2,7.3C102.1,196.7,99.3,196.5,98,196.8z"/>
		<path class="st28" d="M146.1,188.9c2.7-0.7,3.3-4,5.8-5c0.7,4.3-1.9,8-2.3,12.1c-0.2,1.6-2.1,2.6-3.4,2.4c-2.2-0.3-0.6-2-0.6-3.1
			C145.9,193.2,146,191.1,146.1,188.9z"/>
		<path class="st81" d="M140.9,241c7.6,8.5,9.3,18.8,4.3,27C147,258.2,144.6,250,140.9,241z"/>
		<path class="st82" d="M130,270.9c-1.8-8-3.3-16.1-7.5-23.4c-2.2-3.9-5.3-7.2-7.4-11.2c1,0.1,1.9,0.4,2.6,1.3
			C125.3,247.5,130.8,258,130,270.9z"/>
		<path class="st83" d="M156.8,167.4c-1.7,1.8,0,6.2-3.4,6.9c-1.5,0.3-4.7-2.7-4.6-4.5c0.2-2.8,3.6-3.9,6.1-5
			C155.8,164.3,157.1,165.4,156.8,167.4z"/>
		<path class="st84" d="M250.9,144.1c-3.1-0.3-5.7,0.9-8,3c-1.6-1.7-2.1-3.8-1.9-6.1c2.3-2.2,5.2-2.1,8-2
			C249.6,140.7,250.3,142.4,250.9,144.1z"/>
		<path class="st85" d="M105.1,193c6.5-0.3,11.9-4.7,13.8-11.3c0.5-1.6,0.8-3.2,1.2-4.8c1.7,4.7,1.6,7.3-0.6,12.6
			c-0.3-1.2-0.5-2.1-0.8-3C113.9,193.3,110.7,194.8,105.1,193z"/>
		<path class="st86" d="M120.7,78c-1.3-0.3-3.9,0.9-3.4-1.9c0.4-2.4,1.8-4.8,4.8-4.9c1.7,0,4.4,0.4,4.1,2.4
			C125.8,76,124.3,78.7,120.7,78z"/>
		<path class="st87" d="M115.9,109c-2.3-0.3-4.9,1-7-1c0.4-1.4,0.6-2.9,1.1-4.3c0.9-2.5,3-1.7,4.7-1.5c1.9,0.3,2.3,1.5,1.7,3.3
			C116.1,106.6,116.1,107.8,115.9,109z"/>
		<path class="st88" d="M234,185c2.5,0.6,4,3.4,6.9,3c0.9,2.4,1.9,4.7,3.1,7.8C238.4,193.5,234.5,190.9,234,185z"/>
		<path class="st89" d="M223,301.9c-1.9-0.8-2.3-3.2-4.6-3.9c6.4-3,7.3-2.8,11.6,1.7C228.1,301.8,225.5,301.9,223,301.9z"/>
		<path class="st90" d="M249.8,159.5c2.8-0.7,5.7-1.4,8.5-2.1c0.7-0.2,1.4-0.4,1.6,0.3c0.3,0.8,0,1.5-0.6,2.2
			C256.1,163.7,254.1,163.6,249.8,159.5z"/>
		<path class="st91" d="M223,301.9c1.8-2.4,4.6-1.9,7.1-2.1c0.7,0.7,1.3,1.4,2,2.1c-1.1,2.6-2.3,5.2-6,4
			C225,304.6,224,303.3,223,301.9z"/>
		<path class="st92" d="M247.9,126.9c-3,0-5.9,0.1-8.9,0.1c0-3.1-0.3-6.3,0.9-9.3c0.4,6.2,0.4,6.2,8.1,6.2
			C247.9,125,247.9,126,247.9,126.9z"/>
		<path class="st93" d="M241.1,101.1c-2-3-4.6-2.2-7.2-1.1c0.5-2,1.1-3.9,3-5c2.9-1.2,5.4-1.2,7,2C243,98.3,242,99.7,241.1,101.1z"
			/>
		<path class="st94" d="M229.3,142.3c2.5,0.6,4.7,1.1,6.9-0.2c-0.2,2.6-3.2,1.3-3.4,3.4c0.1,0.1,0.2,0.2,0.4,0.3
			c1.4,0.8,3.1-1.9,4.3,0.3c0.2,0.3-0.4,1.3-0.9,1.5c-1.8,0.8-3.5,0.8-5.1-0.6C230.2,145.8,229.5,144.5,229.3,142.3z"/>
		<path class="st95" d="M243.9,97c-2.2-1.2-4.5-2-7-2c0.7-1.3,1.8-2.3,3.1-2.9c0.7-0.6,1.3-0.6,2-0.1C245.4,92.6,247,93.9,243.9,97z
			"/>
		<path class="st96" d="M226,305.9c2.8-0.1,3.7-3.1,6-4c3.8,2.5,0.5,3.6-1,5C228.9,308.7,227,309.6,226,305.9z"/>
		<path class="st97" d="M124.4,83.5c-0.7,3.9-3.2,3.8-5.7,3.6c-0.9-0.1-1.7-0.7-1.1-1.6C119.2,82.8,121.6,82.5,124.4,83.5z"/>
		<path class="st98" d="M242,92c-0.7,0-1.4,0-2,0.1c1.7-2.8,4.4-3.3,7.4-2.9c1,0.1,2.2,0.5,2,1.7c-0.1,1.5-1.4,1-2.3,0.8
			C245.4,91.2,243.6,90.4,242,92z"/>
		<path class="st99" d="M115.3,236.2c-4.1-2.2-7.7-5.2-11.1-8.4C109,229.2,112.7,232,115.3,236.2z"/>
		<path class="st100" d="M235.9,135.2c-2.9,3.6-5.1,3.3-7.9,0.8C230.5,134.3,232.8,135.2,235.9,135.2z"/>
		<path class="st101" d="M249,289.9c0,1.3,0,2.6,0,3.9c-0.8-3-4.8-5.1-2.3-8.8C247.5,286.7,248.2,288.3,249,289.9z"/>
		<path class="st102" d="M152,50.1c0.2,3.9-2.6,3.3-5.8,3.8C147.9,51,149.5,49.9,152,50.1C152,50.1,152,50.1,152,50.1z"/>
		<path class="st103" d="M235,119c-2.4,1.5-4.8,1.6-7.2-0.1c0.1-0.3,0.2-0.6,0.3-0.9c1.3,0,2.7-0.1,4-0.1
			C233.2,117.9,234.3,118,235,119z"/>
		<path class="st104" d="M240,150.7c-1.7,2.8-3.4,2.7-6.2,1.5C236,150.8,237.6,150.5,240,150.7z"/>
		<path class="st105" d="M282.8,112.2c0.3-1.1-0.1-2.4,1.1-3.1c0.4,1.7,0.9,3.3,1.3,5c0.1,4.6,1.2,9.3-0.6,13.9
			c-1.1,0.8-1.5,0.1-1.5-0.9C284.3,122.1,282.7,117.2,282.8,112.2z"/>
		<path class="st15" d="M284.5,127.9c0.2-4.6,0.4-9.2,0.6-13.9C286.2,118.8,287.1,123.4,284.5,127.9z"/>
		<path class="st106" d="M288.8,150c-0.2,2.3-1.4,3.8-4.1,5.4c1.2-2.6,2.1-4.6,3-6.5C288.1,149.2,288.5,149.6,288.8,150z"/>
		<path class="st107" d="M144,97.5c16.2,1.8,32.4,3.3,48.5,5.6c20,2.9,29.7,22.7,20.5,40.7c-3,5.9-8.5,8.2-14.6,9.3
			c-11.7,1.9-23.2-0.1-34.7-1.6c-7.1-0.9-14.2-2-21-4.2c-16.7-5.4-25-27.4-16.1-42.6C130.7,97.9,137.1,97.3,144,97.5z"/>
		<path class="st108" d="M249,153c-0.1-0.3-0.2-0.6-0.4-0.9c-1-1.4-3-2.4-1.6-4.5c0.6-0.9,1.7-0.9,2.6-0.6c1.7,0.6,2.9,2,2.9,3.6
			C252.6,152.7,250.6,152.9,249,153C249,153,249,153,249,153z"/>
		<path class="st8" d="M181.8,128.4c0.3-1.4,0.7-2.8,0.9-4.3c0.6-3.6,2.5-6.2,6-7.1c3.9-1,6.3,1.7,8.1,4.5c1.9,3.1,3.4,6.5,2.9,10.3
			c-0.3,2.3-1.5,4.1-3.8,1.5c-3.3-3.8-6.4-3.9-10.8-1.2C181.2,134.6,182.5,130.3,181.8,128.4z"/>
		<path class="st8" d="M151.9,126.3c0,1.1,0.3,2.5-1.1,3c-1.1,0.5-1.8-0.6-2.5-1.2c-2.6-2.3-5.2-2.5-8.2-0.8c-1.8,1.1-3,0.8-3.4-1.7
			c-0.3-2.5-0.5-4.9,0.5-7.3c2.3-5.4,6.9-6.1,10.8-1.7C149.7,118.4,151.9,124,151.9,126.3z"/>
	</g>
</g>
<path class="st109" d="M80.5,92.5c-1.4-4.5-3.2-4.6-7.1-2.7c-8.8,4.3-8.9,4.1-5.3,13.4c0.8,2,1.3,3.1-1.6,3.7
	c-2.9,0.6-4.7,2.7-4,5.9c0.5,2.4,2.3,3.6,4.8,3.4c3.2-0.3,5.2-2.1,5.6-5.3c0.4-2.6-0.6-5.1-1.8-7.1c-2.7-4.5-0.5-6.4,3.4-7.9
	c0.7-0.2,1.4-0.8,2.2-1c1.6-0.5,4.1,6.2,4.1,6.3c-0.2,0.6-0.9,1.2-2.4,1.7c-2.5,1-3.3,3.2-2.4,5.8c0.8,2.5,3,3,5.3,2.6
	c3-0.4,4.2-2.4,4.3-6.2C84.1,101.4,81.9,97,80.5,92.5z"/>
</svg>
